<?xml version="1.0" standalone="no"?>
<!DOCTYPE svg PUBLIC "-//W3C//DTD SVG 20010904//EN"
 "http://www.w3.org/TR/2001/REC-SVG-20010904/DTD/svg10.dtd">
<svg version="1.0" xmlns="http://www.w3.org/2000/svg"
 width="1024.000000pt" height="1024.000000pt" viewBox="0 0 1024.000000 1024.000000"
 preserveAspectRatio="xMidYMid meet">

<g transform="translate(0.000000,1024.000000) scale(0.100000,-0.100000)"
fill="#000000" stroke="none">
<path d="M0 5120 l0 -5120 2603 2 c1431 2 2486 4 2345 5 -161 2 -258 7 -258
13 0 6 10 10 23 11 20 0 20 1 3 8 -18 7 -18 8 -2 14 19 8 39 0 32 -12 -3 -4
10 -7 27 -8 30 -1 30 -1 7 7 -18 6 -20 8 -7 9 11 1 15 5 11 13 -5 8 -2 9 9 5
10 -3 17 -2 17 3 0 6 7 10 15 10 8 0 14 -5 13 -12 -2 -7 10 -12 30 -13 39 0
43 14 5 16 -26 2 -26 2 -4 6 13 3 28 0 34 -6 17 -17 27 -13 21 6 -4 14 -2 14
8 -2 17 -27 64 -27 60 0 -3 16 -1 17 11 6 10 -7 30 -10 54 -7 36 6 37 6 9 -5
-19 -8 -24 -14 -16 -19 8 -5 -2 -8 -24 -8 -21 0 -40 -3 -43 -6 -4 -3 36 -5 88
-4 52 1 77 3 57 5 -38 4 -50 16 -24 26 7 3 19 0 25 -6 8 -8 11 -7 11 6 0 11 8
17 25 17 14 0 25 5 25 11 0 5 -5 7 -10 4 -6 -4 -10 -3 -9 2 1 4 1 22 0 38 -1
23 -4 26 -11 15 -5 -8 -12 -11 -16 -7 -11 10 12 31 25 23 6 -4 11 -18 11 -32
0 -14 7 -27 15 -30 8 -4 12 -11 9 -16 -4 -6 -1 -9 7 -6 8 3 15 15 16 29 1 13
0 18 -3 12 -8 -18 -21 -16 -28 3 -3 9 -2 12 5 9 6 -4 13 2 16 14 3 12 13 21
22 21 10 0 12 3 5 8 -6 4 -14 16 -17 26 -6 15 -5 17 6 7 11 -8 19 -6 37 9 25
22 20 26 -12 9 -18 -10 -20 -9 -15 6 4 9 7 19 7 21 0 3 4 3 9 0 11 -7 56 32
47 41 -3 4 -11 2 -17 -4 -13 -13 -39 -6 -39 9 0 7 5 6 14 -1 15 -13 26 4 26
40 0 11 7 22 15 25 17 7 21 34 4 34 -5 0 -7 -5 -4 -10 3 -6 1 -10 -4 -10 -16
0 -13 26 4 44 17 17 6 29 -14 16 -8 -4 -10 -13 -7 -19 4 -6 1 -11 -8 -11 -8 0
-18 9 -21 20 -3 11 -13 20 -21 20 -19 0 -18 16 1 24 8 3 15 1 15 -5 0 -6 4 -8
9 -5 5 4 11 0 14 -6 3 -7 4 -3 4 9 -1 12 -4 20 -8 17 -4 -2 -20 7 -34 20 -24
22 -25 25 -7 23 12 0 19 -4 16 -8 -2 -4 0 -10 6 -14 5 -3 10 2 10 12 0 21 -67
47 -97 37 -15 -5 -16 -4 -3 5 13 9 13 12 1 20 -11 7 -9 10 10 13 15 2 23 9 20
18 -2 8 -3 21 -2 28 0 6 2 19 3 27 1 8 6 15 11 15 6 0 0 9 -13 20 l-23 20 24
1 c13 1 31 1 39 0 13 -1 13 0 0 11 -8 7 -15 22 -15 33 0 11 -6 19 -13 17 -8
-1 -11 2 -7 9 4 6 16 9 26 6 14 -4 21 1 25 19 4 14 4 28 0 31 -3 4 -6 -1 -6
-10 0 -17 -11 -22 -23 -10 -4 3 -2 12 4 20 6 7 8 14 3 14 -5 1 -22 3 -38 5
-38 4 -42 10 -11 16 13 3 36 -1 50 -8 16 -8 23 -9 19 -2 -5 7 -2 9 9 5 9 -3
18 1 21 10 8 20 0 28 -16 17 -12 -9 -23 -9 -73 -5 -17 1 -18 3 -5 11 23 15 7
12 -36 -6 -57 -24 -100 -13 -237 57 -131 66 -279 148 -287 158 -3 3 -12 7 -20
9 -8 2 -20 8 -27 14 -35 29 -127 77 -136 71 -5 -3 -7 -1 -4 4 8 13 -20 26 -35
16 -6 -3 -8 -2 -5 4 8 13 -77 58 -92 48 -6 -3 -10 -1 -9 6 2 6 -3 14 -11 17
-9 3 -11 0 -6 -9 5 -8 -4 -1 -19 14 -16 17 -33 27 -42 23 -10 -4 -13 -2 -8 6
5 8 2 9 -10 5 -11 -5 -15 -3 -10 5 5 8 2 9 -9 5 -10 -4 -16 -2 -14 6 1 7 -6
11 -15 11 -10 -1 -16 2 -13 6 7 11 -24 22 -37 13 -6 -3 -8 -1 -5 4 4 6 0 14
-9 17 -10 4 -13 2 -9 -7 4 -6 -2 -1 -13 12 -11 14 -24 21 -31 17 -7 -5 -10 -2
-9 6 2 7 -7 14 -19 16 -13 2 -23 8 -23 13 0 5 -3 8 -7 7 -5 -1 -19 5 -33 13
-25 16 -244 134 -415 224 -118 62 -297 170 -334 201 -16 13 -32 24 -36 24 -3
0 -26 13 -49 30 -24 16 -46 27 -50 25 -3 -3 -4 -2 -1 2 3 3 -3 12 -13 19 -13
10 -17 27 -17 81 l0 68 -46 -9 c-61 -12 -104 4 -119 47 -6 19 -8 71 -5 137 9
159 12 170 40 170 13 0 41 10 62 21 115 66 162 91 373 201 63 34 140 74 170
91 30 16 93 50 140 75 47 24 119 63 160 85 41 22 129 68 195 102 66 34 137 71
157 83 21 12 109 58 195 103 87 45 196 102 243 127 47 25 126 66 175 92 50 26
124 65 165 87 41 22 134 71 205 108 433 226 585 305 650 340 116 62 200 109
245 135 25 14 53 29 63 33 16 6 17 83 17 1425 0 1089 -3 1421 -12 1430 -28 28
-100 8 -217 -62 -52 -31 -152 -83 -561 -294 -164 -84 -928 -479 -1195 -617
-77 -40 -241 -124 -365 -187 -124 -64 -342 -175 -485 -248 -143 -74 -286 -151
-318 -172 -32 -21 -61 -38 -65 -38 -4 0 0 5 8 10 13 9 13 11 0 20 -22 15 -30
12 -30 -9 0 -11 -4 -22 -9 -25 -5 -3 -12 -23 -16 -43 -4 -21 -10 -630 -14
-1353 -3 -723 -10 -1321 -15 -1328 -4 -8 -10 -54 -11 -104 -7 -171 -15 -101
-15 125 l0 225 -47 18 c-27 9 -64 24 -83 31 -19 8 -67 21 -107 28 -95 19 -333
148 -312 170 4 3 13 0 20 -7 8 -8 34 -25 59 -40 129 -74 181 -97 240 -109 36
-7 96 -25 134 -41 38 -15 74 -28 81 -28 9 0 12 117 11 525 -1 289 -3 525 -6
525 -3 0 -61 -30 -130 -66 -195 -103 -202 -106 -245 -110 -90 -9 -115 -9 -115
1 -1 10 69 28 155 42 36 6 88 30 225 104 25 13 47 27 48 32 2 4 10 7 18 7 8 0
14 4 14 9 0 5 9 11 20 14 19 5 20 18 22 678 l3 674 23 43 c39 72 87 117 171
158 44 21 77 43 74 48 -3 5 -1 6 4 3 10 -6 73 19 73 29 0 3 -4 2 -10 -1 -5 -3
-15 -3 -22 1 -8 5 -6 10 8 15 17 7 17 8 2 8 -10 1 -18 5 -18 9 0 5 -19 15 -42
22 -24 8 -47 17 -53 20 -37 26 -136 51 -195 50 -96 -2 -136 -14 -267 -78 -65
-32 -145 -69 -178 -82 -33 -12 -68 -33 -78 -44 -13 -15 -20 -17 -24 -8 -2 6
-11 12 -19 12 -8 0 -14 5 -14 10 0 6 9 10 20 10 13 0 20 7 20 20 0 11 7 20 16
20 8 0 12 -4 9 -10 -3 -5 1 -10 9 -10 8 0 18 5 21 10 3 6 14 10 23 10 9 0 53
17 97 39 179 87 234 111 263 111 64 0 62 -9 62 231 0 120 -2 219 -4 219 -21 0
-149 -70 -181 -99 -88 -81 -219 -157 -318 -186 -53 -15 -57 -19 -57 -46 0 -16
-4 -29 -10 -29 -5 0 -10 13 -10 29 0 27 -3 29 -47 33 -47 3 -48 2 -103 -55
-127 -136 -321 -237 -456 -237 -44 0 -59 -5 -86 -29 -45 -39 -149 -104 -297
-186 -91 -50 -137 -69 -172 -73 -56 -5 -109 13 -109 37 0 11 -3 12 -8 4 -10
-16 -119 36 -153 73 -34 38 -93 124 -103 149 -20 54 -24 113 -11 161 7 27 14
41 14 32 1 -25 29 -48 57 -48 13 0 24 -5 24 -11 0 -5 4 -7 10 -4 5 3 10 -1 10
-10 0 -9 4 -14 9 -11 8 5 13 -7 23 -51 1 -5 12 -19 24 -32 12 -13 30 -44 39
-68 l17 -44 23 23 c36 37 87 200 89 285 1 46 -3 74 -10 77 -20 8 -53 -23 -84
-77 -16 -29 -30 -46 -30 -39 0 6 -6 12 -14 12 -8 0 -27 5 -43 12 -15 6 -34 12
-41 12 -7 1 -16 6 -20 12 -11 16 -50 24 -56 10 -2 -6 -5 -2 -6 9 l-1 20 -10
-20 c-19 -39 0 48 23 105 45 115 134 222 250 301 31 21 59 48 63 59 8 25 11
25 62 -4 24 -14 45 -20 48 -15 12 19 25 8 19 -16 -4 -15 -2 -25 5 -25 6 0 11
-5 11 -10 0 -6 -27 9 -60 32 -48 34 -63 40 -70 29 -6 -10 13 -35 67 -87 81
-78 109 -95 119 -70 5 14 22 14 65 1 28 -9 24 -21 -15 -45 -24 -14 -43 -19
-60 -14 -34 8 -33 -3 5 -49 24 -29 38 -37 63 -37 33 0 33 0 44 68 6 37 21 95
32 130 12 35 18 72 15 83 -8 24 -38 41 -78 43 -17 1 -33 8 -35 14 -2 6 -19 14
-38 18 -19 3 -34 9 -34 13 0 4 -15 15 -32 26 -18 10 -36 22 -39 27 -3 5 -16
10 -27 11 -17 1 -21 6 -16 22 34 108 167 260 311 354 71 46 84 59 100 99 20
53 111 184 157 224 47 43 156 112 204 131 61 24 148 31 212 18 50 -10 60 -9
99 10 33 16 57 20 95 17 45 -4 122 -31 136 -48 3 -3 21 -13 40 -23 32 -15 36
-15 47 -1 9 13 26 15 75 12 80 -5 162 -44 294 -139 54 -39 122 -82 149 -96
108 -54 149 -119 149 -233 -1 -41 -9 -102 -18 -135 -40 -136 -153 -305 -255
-381 -46 -35 -50 -40 -56 -93 -4 -38 -4 -410 0 -411 0 0 15 4 34 10 37 10 124
2 115 -11 -3 -5 4 -9 15 -9 11 0 23 -4 26 -10 3 -5 17 -10 31 -10 13 0 24 -4
24 -8 0 -5 19 -15 43 -22 23 -8 44 -17 47 -20 3 -3 19 -10 35 -15 31 -11 65 4
270 115 33 18 81 44 108 57 27 14 44 29 40 35 -3 7 -1 8 6 4 16 -11 83 22 75
36 -4 6 -3 8 3 5 16 -10 85 22 77 35 -4 7 -3 8 4 4 14 -8 72 20 72 35 0 6 4 8
9 5 5 -3 23 2 42 11 29 15 31 17 13 24 -15 6 -13 8 11 7 17 -1 41 4 55 12 23
13 24 14 5 21 -17 7 -15 8 10 8 53 -2 51 3 -5 17 l-55 13 50 -3 c28 -2 58 -7
68 -11 9 -4 17 -3 17 3 0 5 -16 13 -35 16 -24 5 -32 11 -29 21 5 12 9 12 27 1
31 -19 75 -28 82 -16 4 6 -6 10 -24 10 -21 0 -31 5 -31 15 0 9 -9 15 -21 15
-15 0 -19 5 -15 15 3 8 1 15 -4 15 -6 0 -10 5 -10 11 0 6 7 9 15 5 13 -5 14
-2 4 15 -6 12 -17 18 -25 15 -8 -3 -14 -1 -14 4 0 6 7 10 15 10 18 0 20 16 3
24 -10 5 -10 7 0 12 21 10 13 34 -12 34 -25 0 -189 27 -218 36 -16 5 -18 25
-18 229 l0 224 -96 72 c-128 96 -289 259 -337 340 -51 87 -74 161 -60 192 11
23 16 24 97 22 46 -1 83 2 80 7 -9 15 18 8 55 -13 32 -19 33 -19 12 -1 -13 10
-71 48 -130 82 -111 66 -141 88 -141 101 0 5 42 -17 93 -48 89 -54 128 -79
267 -167 36 -23 81 -50 101 -59 40 -18 49 -42 49 -124 0 -39 2 -43 18 -34 10
6 42 45 70 88 29 43 73 100 100 126 49 49 64 54 157 56 21 1 30 20 59 123 8
25 25 72 40 103 19 41 24 66 20 89 -4 17 -6 41 -5 54 0 13 -5 30 -12 37 -6 8
-18 21 -25 30 -8 9 -21 13 -32 10 -20 -6 -60 21 -60 42 0 13 -37 28 -60 24 -8
-2 -35 -20 -60 -41 -34 -28 -57 -63 -93 -137 -33 -65 -57 -102 -73 -110 -13
-6 -22 -7 -18 -2 3 5 2 9 -3 10 -4 0 -18 2 -31 5 -14 2 -21 0 -17 -6 3 -5 2
-10 -4 -10 -5 0 -12 4 -15 9 -3 5 -15 11 -26 14 -11 3 -18 1 -15 -3 3 -5 1
-11 -5 -15 -5 -3 -10 1 -10 10 0 12 -6 15 -20 10 -13 -4 -20 -2 -20 7 0 10 -3
9 -10 -2 -6 -10 -10 -11 -10 -2 0 6 -11 12 -25 12 -14 0 -25 4 -25 10 0 5 -3
9 -7 8 -17 -4 -53 14 -53 27 0 9 -6 12 -17 8 -10 -4 -14 -2 -10 4 4 6 -9 18
-29 28 -22 10 -34 22 -30 30 3 10 0 12 -11 8 -11 -4 -14 -2 -9 5 4 7 1 12 -8
12 -9 0 -16 7 -16 15 0 8 -10 17 -23 20 -37 10 -32 53 25 189 72 171 254 407
396 513 20 16 43 34 50 40 19 18 138 87 192 111 125 56 146 61 136 37 -4 -10
12 -26 49 -50 30 -19 55 -39 55 -43 0 -5 -19 -16 -42 -25 l-41 -17 43 -42 c23
-23 49 -56 56 -73 14 -35 48 -69 101 -101 21 -12 37 -26 37 -31 -1 -4 2 -18 7
-31 5 -13 9 -29 9 -35 0 -7 9 -23 19 -36 10 -14 17 -31 14 -38 -3 -7 -2 -21 2
-30 4 -10 9 -26 10 -36 2 -23 22 -37 53 -37 22 0 88 -45 122 -82 8 -9 33 -18
55 -20 l40 -3 -4 70 c-2 38 -7 80 -12 92 -7 19 -5 23 11 23 11 0 20 5 20 10 0
6 17 17 38 25 34 14 43 27 89 119 l52 104 -49 83 c-28 45 -50 80 -50 77 0 -3
-18 12 -40 32 -22 20 -40 40 -40 43 0 8 57 3 87 -8 13 -4 23 -11 23 -15 0 -16
140 8 143 25 1 6 -8 14 -20 20 -13 5 -23 13 -23 17 0 5 10 8 23 8 l22 1 -24
19 c-29 25 -78 26 -104 3 -18 -17 -18 -16 2 22 26 49 15 64 -46 67 -26 1 -40
5 -36 12 4 5 -8 0 -25 -12 -17 -13 -34 -27 -37 -32 -4 -6 -27 0 -53 14 -70 35
-165 56 -203 46 -18 -5 -36 -7 -40 -4 -15 9 -10 -8 7 -27 15 -17 14 -20 -17
-49 -18 -16 -37 -30 -41 -30 -5 0 -1 -11 7 -24 15 -22 14 -24 -3 -28 -51 -14
-156 9 -181 39 -12 13 -26 21 -31 18 -6 -3 -10 1 -10 10 0 9 -4 14 -9 10 -11
-6 0 35 19 78 15 31 23 33 43 13 8 -8 27 -16 43 -18 26 -3 29 0 30 30 1 21 -4
32 -12 32 -8 0 -13 6 -11 13 1 6 -8 12 -20 12 -11 0 -24 3 -28 6 -11 12 80
180 145 269 103 141 261 280 395 347 102 51 166 67 275 67 114 0 137 -7 224
-66 l49 -34 66 23 c37 12 113 30 170 39 89 15 111 16 169 4 37 -7 74 -16 82
-21 8 -4 40 -19 70 -33 30 -15 78 -40 105 -57 28 -16 58 -32 68 -36 9 -3 17
-9 17 -14 0 -5 7 -9 15 -9 8 0 15 -4 15 -10 0 -5 9 -10 21 -10 11 0 17 -4 14
-10 -3 -5 -1 -10 5 -10 12 0 101 -58 111 -72 3 -5 48 -7 100 -6 85 3 101 0
145 -22 27 -14 51 -28 52 -32 2 -5 10 -8 18 -8 8 0 14 -4 14 -8 0 -5 11 -14
24 -21 19 -11 31 -11 62 -1 33 11 36 14 19 20 -11 4 -28 3 -38 -2 -10 -5 -23
-7 -30 -5 -7 3 0 8 16 12 15 4 27 13 27 21 0 8 4 14 10 14 5 0 7 -6 4 -13 -3
-9 4 -13 20 -13 20 0 23 3 14 13 -7 9 -7 13 0 13 6 0 14 -4 17 -10 3 -5 15
-10 25 -10 25 0 17 24 -13 38 l-22 11 23 0 c15 1 21 5 16 13 -5 7 -1 9 13 6
11 -3 28 -1 37 4 12 7 22 5 32 -3 13 -10 17 -10 25 2 12 20 11 36 -3 43 -7 4
-3 4 8 2 13 -2 28 4 38 15 9 11 23 19 31 19 8 0 15 4 15 10 0 5 -14 7 -32 4
l-33 -5 25 15 c14 8 28 12 33 9 4 -2 6 1 5 9 -2 7 2 12 7 11 7 -1 9 13 7 34
-4 32 -3 35 11 22 8 -8 11 -15 6 -17 -14 -6 -10 -22 5 -22 10 0 13 8 11 21 -5
25 12 44 40 44 11 0 19 6 17 13 -1 8 2 11 8 7 16 -10 12 7 -7 28 -17 18 -17
19 2 16 11 -2 19 1 18 7 -3 17 43 4 63 -17 17 -19 40 -27 29 -10 -3 5 3 12 12
15 10 2 6 4 -9 3 -15 -1 -27 3 -28 8 0 6 9 11 20 11 34 2 36 14 2 14 -23 0
-32 5 -32 16 0 9 -7 22 -16 28 -13 10 -4 12 45 11 33 0 70 3 83 7 l23 6 -22 1
c-13 1 -23 6 -23 11 0 7 -6 7 -19 1 -24 -13 -55 17 -41 39 8 12 10 10 10 -7 0
-13 6 -23 13 -23 19 0 17 32 -2 48 -14 11 -13 11 7 2 12 -6 22 -15 22 -20 0
-6 7 -10 16 -10 8 0 12 -4 9 -10 -3 -5 -1 -10 4 -10 14 0 14 13 -1 28 -9 9 -7
11 10 7 13 -2 21 1 19 8 -2 11 4 13 39 16 8 0 12 6 9 12 -4 6 -12 8 -19 6 -6
-3 -12 6 -12 19 -1 15 4 24 13 24 8 0 12 -4 9 -9 -3 -4 6 -6 19 -3 14 2 28 9
31 14 3 5 -5 6 -18 3 -16 -4 -27 0 -36 15 -7 12 -8 20 -2 20 5 0 10 -4 10 -10
0 -5 15 -9 33 -9 28 2 29 2 5 6 -27 4 -48 35 -29 41 6 2 9 8 5 13 -3 5 4 9 16
9 12 0 19 -4 16 -9 -3 -5 4 -11 16 -14 29 -8 33 -3 13 17 -10 10 -12 16 -5 16
7 0 10 6 7 13 -4 10 2 13 20 9 16 -3 21 -7 13 -12 -9 -5 -5 -10 11 -16 36 -12
50 -13 44 -4 -3 5 -1 11 4 15 5 3 14 -3 20 -12 6 -10 11 -13 11 -6 0 6 -5 15
-11 19 -8 5 -8 9 1 14 8 5 5 9 -9 13 -12 3 -24 0 -28 -5 -4 -7 -1 -8 7 -3 8 5
11 3 8 -5 -7 -22 -28 -23 -28 -2 0 12 9 23 20 27 11 4 18 10 15 14 -2 5 13 8
35 8 36 0 77 19 66 31 -3 2 5 13 17 23 l22 18 -25 2 c-18 1 -20 3 -7 6 10 3
25 -1 34 -9 14 -11 15 -11 11 2 -3 8 1 23 10 33 14 15 13 17 -2 17 -9 0 -14
-4 -11 -10 3 -5 1 -10 -4 -10 -6 0 -11 5 -11 10 0 7 -1267 10 -3780 10 l-3780
0 0 -5120z m7550 5100 c0 -5 -7 -10 -16 -10 -8 0 -12 5 -9 10 3 6 10 10 16 10
5 0 9 -4 9 -10z m-52 -87 c-10 -2 -26 -2 -35 0 -10 3 -2 5 17 5 19 0 27 -2 18
-5z m-288 -178 c0 -11 -29 -11 -33 -1 -4 10 1 12 14 9 10 -3 19 -7 19 -8z
m-10 -51 c0 -13 -29 -28 -38 -19 -3 3 0 5 6 5 6 0 9 6 6 13 -3 8 2 14 11 14 8
0 15 -6 15 -13z m-145 -144 c3 -6 -1 -7 -9 -4 -18 7 -21 14 -7 14 6 0 13 -4
16 -10z m-107 -95 c-3 -3 -9 2 -12 12 -6 14 -5 15 5 6 7 -7 10 -15 7 -18z m32
21 c0 -3 -4 -8 -10 -11 -5 -3 -10 -1 -10 4 0 6 5 11 10 11 6 0 10 -2 10 -4z
m-82 -40 c-7 -8 -17 -12 -22 -9 -4 3 -2 9 5 14 22 13 31 11 17 -5z m-52 -25
c-7 -11 -56 -21 -56 -10 0 4 12 10 28 12 15 2 28 5 30 6 2 0 1 -3 -2 -8z m37
-24 c4 3 7 2 7 -3 0 -5 -8 -14 -19 -21 -16 -10 -18 -9 -18 13 0 18 3 22 12 14
6 -5 15 -7 18 -3z m-43 -15 c0 -5 -10 -8 -22 -7 -13 1 -29 -5 -37 -12 -7 -8
-16 -11 -20 -8 -10 10 30 35 56 35 13 0 23 -4 23 -8z m-17 -29 c-7 -2 -13 -14
-14 -26 0 -21 -1 -21 -8 -2 -8 20 3 35 24 34 6 0 4 -3 -2 -6z m-58 -28 c29
-30 30 -31 9 -39 -9 -3 -12 -2 -9 5 4 5 -5 21 -20 35 -14 13 -22 24 -16 24 6
0 22 -11 36 -25z m32 -71 c-3 -3 -12 -4 -19 -1 -8 3 -5 6 6 6 11 1 17 -2 13
-5z m-123 -20 c3 -8 2 -13 -3 -9 -14 8 -42 -6 -34 -18 3 -6 1 -7 -5 -3 -17 10
-15 26 3 26 8 0 15 5 15 10 0 16 17 12 24 -6z m-2198 -970 c-8 -21 -15 -31
-15 -22 -1 21 18 72 24 66 3 -3 -1 -22 -9 -44z m124 -168 c0 -19 -17 -29 -36
-22 -12 5 -13 8 -2 20 17 19 38 20 38 2z m1040 -1926 c0 -22 -4 -28 -15 -24
-8 4 -21 1 -29 -5 -13 -11 -26 -5 -26 11 0 14 39 48 55 48 10 0 15 -10 15 -30z
m-154 -75 c-11 -8 -24 -15 -30 -15 -5 0 -1 7 10 15 10 8 24 14 29 14 6 0 1 -6
-9 -14z m-51 -25 c-3 -5 -12 -10 -18 -10 -7 0 -6 4 3 10 19 12 23 12 15 0z
m211 -47 c-2 -3 -11 1 -19 8 -11 11 -11 16 2 31 15 18 16 18 19 -7 2 -15 1
-29 -2 -32z m-251 27 c-3 -5 -12 -10 -18 -10 -7 0 -6 4 3 10 19 12 23 12 15 0z
m-1422 -35 c-3 -8 -13 -15 -22 -14 -10 0 -11 2 -3 6 6 2 12 11 12 19 0 9 4 13
10 9 5 -3 7 -12 3 -20z m1387 20 c0 -6 -56 -35 -67 -35 -4 1 8 9 27 20 39 22
40 22 40 15z m203 -18 c4 -10 -4 -14 -24 -14 -35 0 -37 5 -6 17 12 5 23 9 23
9 1 1 4 -5 7 -12z m-288 -27 c-3 -5 -12 -10 -18 -10 -7 0 -6 4 3 10 19 12 23
12 15 0z m295 -12 c11 -6 8 -7 -10 -3 -24 6 -24 5 3 -10 20 -12 32 -13 46 -5
11 5 24 10 30 10 22 0 8 -962 -18 -1280 -4 -52 -6 -100 -4 -107 3 -6 15 -14
29 -17 53 -14 71 -115 33 -192 -11 -23 -40 -59 -64 -79 -30 -24 -48 -49 -57
-76 -10 -35 -59 -89 -80 -89 -3 0 -41 -20 -84 -43 -156 -86 -410 -215 -435
-221 -19 -4 -35 0 -53 15 -23 18 -26 27 -26 84 0 77 13 109 55 133 22 13 35
32 44 63 8 26 28 58 50 78 21 20 27 29 14 23 -31 -17 -99 -100 -95 -117 1 -8
-6 -18 -16 -24 -10 -5 -31 -33 -46 -62 -24 -43 -29 -64 -28 -119 l0 -68 -301
-156 c-166 -86 -401 -208 -522 -272 -457 -239 -469 -244 -494 -196 -4 9 -5
132 0 272 4 140 8 422 8 625 1 204 6 451 11 550 6 99 11 233 11 298 0 98 3
118 15 113 7 -3 13 0 11 6 -1 7 6 14 16 16 12 2 17 -3 17 -16 0 -20 -25 -36
-41 -26 -5 3 -9 -2 -9 -10 0 -9 3 -16 6 -16 16 0 110 53 122 68 11 15 14 15
23 2 9 -13 10 -13 6 2 -4 9 1 19 10 22 19 8 32 -2 18 -12 -6 -4 -11 -18 -11
-32 -1 -14 -2 -27 -3 -30 0 -3 -18 -7 -38 -8 -45 -3 -58 -12 -17 -12 23 0 26
-2 14 -11 -12 -9 -11 -10 8 -6 12 3 22 1 22 -4 0 -5 12 1 26 13 14 13 20 24
15 26 -18 6 -12 18 9 19 11 1 18 -2 15 -8 -4 -5 -1 -9 4 -9 6 0 11 8 11 19 0
12 12 23 33 32 17 7 56 28 86 47 l54 35 -24 18 -24 18 35 0 c58 0 124 12 140
26 25 22 224 120 239 118 8 -1 21 6 29 15 7 9 11 11 7 5 -9 -19 30 -16 45 2 7
8 16 15 21 15 5 0 6 -7 3 -15 -4 -8 -13 -15 -21 -15 -13 0 -13 -3 -3 -15 11
-13 8 -14 -21 -10 -19 3 -28 3 -21 -1 18 -8 15 -24 -5 -24 -15 0 -16 -2 -3
-10 12 -7 8 -10 -15 -10 -22 0 -26 -3 -16 -9 19 -12 75 15 65 31 -4 6 -3 8 4
5 15 -10 43 3 35 16 -3 6 -1 7 5 3 12 -7 144 60 150 76 2 4 7 8 12 8 5 0 21 5
37 11 22 8 24 12 13 19 -11 7 -6 10 20 11 29 0 32 2 15 10 -18 8 -18 9 5 8 44
-2 46 2 10 16 -19 7 -27 14 -17 14 19 1 22 12 7 27 -7 7 31 33 117 82 71 39
119 72 108 72 -11 0 -16 3 -10 8 6 4 12 17 12 30 2 21 -8 26 -47 24 -11 0 -10
3 4 13 27 20 336 177 336 171 0 -3 -42 -28 -92 -56 -52 -28 -80 -48 -63 -44
29 6 29 6 10 -9 -18 -15 -18 -16 -2 -17 10 0 22 11 27 25 13 35 21 31 15 -7
-5 -27 -4 -30 10 -18 8 7 24 10 36 7 27 -7 81 12 72 26 -3 6 -1 7 5 3 15 -9
55 18 44 29 -4 5 -2 5 5 1 7 -4 52 13 100 38 88 44 122 49 163 24z m-1649 -66
c-7 -2 -18 1 -23 6 -8 8 -4 9 13 5 13 -4 18 -8 10 -11z m1269 -2 c0 -5 -4 -10
-10 -10 -5 0 -10 5 -10 10 0 6 5 10 10 10 6 0 10 -4 10 -10z m15 -30 c15 -7
10 -9 -23 -9 -26 -1 -41 3 -37 9 7 12 32 12 60 0z m-326 -94 c-9 -9 -80 -46
-87 -46 -10 1 71 50 82 50 5 0 7 -2 5 -4z m-104 -56 c-3 -5 -12 -10 -18 -10
-7 0 -6 4 3 10 19 12 23 12 15 0z m-125 -256 c0 -2 -11 -3 -24 -2 -14 1 -23 5
-20 9 4 7 44 0 44 -7z m-430 -38 c0 -2 -7 -7 -16 -10 -8 -3 -12 -2 -9 4 6 10
25 14 25 6z m220 -6 c0 -5 -8 -10 -17 -10 -15 0 -16 2 -3 10 19 12 20 12 20 0z
m-2231 -34 c-9 -7 -471 -235 -534 -263 -107 -48 -385 -183 -385 -188 0 -2 44
-27 98 -55 53 -29 134 -75 178 -101 87 -52 136 -68 156 -51 7 5 67 38 133 72
66 34 125 66 130 70 14 11 81 49 130 74 45 22 107 25 130 6 20 -17 19 -30 -2
-30 -10 0 -56 -23 -102 -51 -47 -28 -155 -88 -240 -133 -148 -79 -198 -105
-486 -256 -66 -35 -192 -102 -280 -150 -88 -48 -203 -109 -255 -134 -102 -51
-132 -74 -158 -121 -15 -27 -17 -114 -19 -930 -2 -495 -4 -903 -5 -907 -2 -4
-10 -3 -18 2 -13 8 -16 122 -20 892 -3 487 -2 905 3 933 15 86 55 127 196 201
45 23 51 29 35 35 -10 4 -118 48 -239 97 -121 49 -228 92 -238 95 -26 9 -21
23 19 53 45 35 139 84 404 211 211 102 346 163 359 163 5 0 14 6 20 14 11 13
-10 25 -198 108 -28 13 -40 23 -33 30 6 6 23 0 47 -17 21 -14 50 -28 64 -32
14 -3 55 -21 91 -40 41 -21 72 -30 85 -27 22 7 395 188 720 350 116 57 212 99
214 93 1 -5 1 -12 0 -13z m1971 20 c0 -2 -7 -7 -16 -10 -8 -3 -12 -2 -9 4 6
10 25 14 25 6z m305 -16 c3 -5 1 -10 -4 -10 -6 0 -11 5 -11 10 0 6 2 10 4 10
3 0 8 -4 11 -10z m-420 -55 c-34 -27 -45 -31 -45 -12 0 12 61 48 70 40 2 -2
-9 -15 -25 -28z m-61 -28 c-2 -7 -21 -21 -42 -31 -20 -10 -45 -22 -54 -27 -10
-5 -22 -9 -28 -9 -15 0 -12 20 3 21 6 0 32 13 57 29 49 31 72 37 64 17z m-70
-90 c-3 -9 -11 -14 -17 -10 -5 3 -7 1 -3 -5 3 -6 2 -13 -4 -17 -19 -12 -23 26
-4 46 19 21 38 12 28 -14z m-99 -7 c3 -5 -5 -15 -20 -22 -20 -9 -28 -9 -38 1
-9 10 -9 11 4 6 10 -4 19 0 22 9 7 18 23 21 32 6z m129 -15 c-25 -19 -38 -19
-22 0 7 8 19 14 27 15 11 0 9 -4 -5 -15z m-214 -25 c-6 -11 -15 -20 -20 -20
-14 0 -12 27 3 33 23 10 28 7 17 -13z m-602 -46 c2 -16 14 -85 27 -154 69
-351 85 -443 80 -448 -3 -3 -5 3 -5 13 0 13 -3 15 -13 6 -8 -6 -17 -8 -20 -5
-3 4 -14 3 -24 -1 -31 -14 -45 -14 -40 -1 8 21 -6 36 -23 26 -13 -8 -12 -10 3
-10 10 0 16 -4 13 -9 -8 -12 -57 -5 -66 9 -5 9 -9 9 -14 1 -4 -6 -13 -11 -19
-11 -8 0 -8 3 1 9 11 6 11 10 0 19 -13 10 -18 12 -38 12 -5 0 -11 12 -12 28
-1 15 -5 -9 -8 -53 -4 -47 -7 45 -8 223 l-2 302 23 0 c18 0 19 2 7 11 -11 7
-6 8 20 3 31 -6 33 -5 21 10 -12 14 -10 16 13 16 17 0 25 4 20 11 -4 7 3 10
17 9 38 -3 45 0 29 11 -13 9 -13 10 0 6 8 -2 16 -17 18 -33z m548 15 c9 -16
-12 -33 -31 -25 -14 5 -15 9 -5 21 15 18 26 19 36 4z m-1999 -829 l0 -130 -28
-12 c-33 -15 -38 -27 -11 -29 9 -1 1 -5 -18 -9 -34 -7 -34 -7 -6 -9 16 0 26
-4 23 -7 -6 -6 -22 -9 -68 -13 -18 -1 -22 -32 -5 -44 6 -4 -7 -5 -29 -2 -36 4
-37 4 -10 -5 22 -7 46 -5 100 11 128 38 269 87 328 113 65 29 67 30 67 16 0
-5 -5 -10 -11 -10 -5 0 -48 -16 -94 -36 -65 -29 -82 -40 -77 -53 5 -14 3 -14
-10 -3 -14 11 -37 6 -147 -30 -80 -26 -131 -48 -131 -56 0 -10 4 -9 16 3 12
11 19 13 24 5 10 -16 147 -11 161 6 6 8 17 14 25 14 7 0 19 6 27 14 28 28 78
34 133 15 28 -10 60 -15 72 -12 24 6 27 -9 16 -79 -10 -56 -26 -46 -18 11 l6
48 -71 18 c-68 16 -72 16 -108 -2 -21 -10 -37 -24 -35 -32 2 -8 -3 -11 -11 -8
-8 3 -19 1 -25 -5 -11 -11 -43 -15 -130 -17 -50 -1 -52 -2 -42 -22 7 -11 14
-18 17 -15 3 3 15 1 25 -5 14 -8 23 -8 31 0 19 19 43 12 55 -14 16 -34 29 -31
49 10 9 19 23 35 30 35 7 0 13 4 13 9 0 14 65 41 99 41 17 0 31 -4 31 -9 0
-16 -79 -105 -106 -119 -24 -13 -25 -14 -8 -27 10 -7 24 -11 31 -8 7 3 13 0
13 -6 0 -6 -7 -11 -15 -11 -24 0 -64 -30 -59 -44 2 -6 -8 -17 -23 -23 l-28
-10 30 2 c40 3 55 -3 48 -21 -3 -8 1 -14 11 -14 9 0 16 6 16 14 0 24 30 46 61
46 17 0 32 6 35 15 4 8 11 15 16 15 6 0 8 -7 4 -15 -3 -8 -2 -25 3 -37 l8 -22
14 22 c8 12 18 22 24 22 6 0 27 9 48 20 20 11 51 20 67 20 l30 0 -4 -357 c-2
-197 -5 -359 -5 -360 -1 -2 -55 -31 -238 -130 -35 -18 -91 -48 -125 -67 -35
-18 -166 -86 -293 -151 -126 -65 -243 -125 -260 -135 -16 -10 -93 -50 -170
-90 -77 -40 -168 -88 -202 -106 l-63 -33 1 779 c0 596 3 781 12 788 7 6 46 28
87 49 41 22 93 50 115 63 22 13 69 39 105 58 36 19 76 42 90 50 14 9 84 46
155 83 72 37 143 74 159 82 16 9 34 13 39 10 6 -3 7 -1 3 5 -4 7 -1 12 6 12 7
0 24 9 38 20 14 11 33 20 43 20 9 0 17 5 17 10 0 6 1 10 3 10 2 0 4 -58 4
-130z m369 -152 c-4 -50 -15 -80 -26 -73 -16 10 7 115 26 115 1 0 2 -19 0 -42z
m-356 -4 c0 -2 -9 -4 -21 -4 -11 0 -18 4 -14 10 5 8 35 3 35 -6z m-93 -70 c-3
-3 -12 -4 -19 -1 -8 3 -5 6 6 6 11 1 17 -2 13 -5z m397 -79 c-4 -8 -10 -12
-15 -9 -14 8 -10 24 6 24 9 0 12 -6 9 -15z m16 -99 c0 -17 -32 -76 -42 -76
-10 0 -3 29 10 42 7 7 12 20 12 30 0 10 5 18 10 18 6 0 10 -6 10 -14z m-141
-1283 c177 -87 221 -115 221 -140 0 -8 -24 -38 -53 -66 -44 -43 -99 -76 -337
-197 -157 -79 -322 -162 -367 -184 l-82 -39 6 -81 c4 -56 10 -84 20 -91 9 -5
45 -30 82 -54 36 -24 80 -51 96 -60 17 -9 41 -24 55 -32 96 -60 319 -185 358
-199 39 -15 44 -20 28 -26 -22 -8 -29 -5 -246 120 -262 152 -437 266 -421 275
8 6 9 25 1 77 -5 38 -10 92 -10 121 0 28 -4 55 -10 58 -6 4 -9 -80 -7 -241 l2
-247 77 -51 c126 -83 215 -136 296 -178 85 -44 105 -58 80 -58 -9 0 -45 16
-80 36 -34 20 -88 50 -118 67 -30 17 -73 42 -95 57 -22 14 -60 38 -85 52 -25
15 -56 39 -70 55 l-25 28 5 419 c3 284 8 420 16 423 7 2 10 -53 10 -177 -1
-140 2 -183 12 -189 8 -4 16 -26 19 -49 l5 -41 146 76 c79 41 152 78 161 83 9
5 99 50 201 101 102 50 199 101 215 112 47 32 104 98 98 114 -3 7 -49 34 -102
58 -114 54 -272 134 -285 146 -24 22 20 3 183 -78z m-589 -168 c0 -19 -4 -35
-10 -35 -5 0 -10 16 -10 35 0 19 5 35 10 35 6 0 10 -16 10 -35z m1279 -816
c42 -23 139 -74 216 -114 210 -109 385 -200 432 -225 43 -24 60 -53 39 -68 -6
-5 -38 -19 -71 -32 -106 -41 -104 -38 -45 -71 29 -16 59 -29 66 -29 7 0 14 -4
16 -9 2 -5 21 -17 43 -28 72 -36 170 -88 175 -93 6 -6 43 -27 95 -54 22 -12
49 -29 59 -38 11 -10 26 -18 33 -18 7 0 13 -4 13 -10 0 -5 6 -10 13 -10 7 0
22 -8 33 -19 36 -33 62 -43 83 -31 11 5 31 10 45 10 14 0 28 5 31 10 3 6 17
10 30 10 31 0 76 20 69 32 -3 5 -2 8 3 7 20 -3 27 2 13 11 -12 8 -12 11 3 27
9 11 32 25 52 33 19 8 35 17 35 22 0 4 7 8 15 8 8 0 15 5 15 10 0 6 9 10 20
10 11 0 51 14 88 32 94 45 95 45 19 -5 -37 -24 -76 -55 -87 -67 -14 -16 -20
-18 -21 -9 0 10 -2 11 -6 2 -2 -7 -14 -13 -24 -13 -11 0 -18 -4 -14 -9 3 -5
-7 -11 -22 -13 -20 -2 -29 -9 -31 -25 -2 -13 -17 -30 -33 -40 -16 -10 -29 -21
-29 -25 0 -4 -12 -8 -26 -8 -16 0 -23 -4 -18 -12 4 -6 3 -8 -4 -4 -14 9 -94
-10 -150 -35 -32 -15 -58 -20 -88 -16 -27 3 -158 63 -385 176 -189 94 -348
171 -354 171 -5 0 -46 -17 -90 -39 -652 -318 -725 -351 -781 -351 -11 0 -79
31 -150 68 -71 38 -185 98 -254 134 -69 36 -141 74 -160 85 -19 11 -71 39
-115 63 -93 50 -110 63 -102 83 5 13 239 137 259 137 4 0 17 -9 28 -20 37 -37
36 -37 420 163 74 38 158 82 185 97 28 15 98 53 158 84 59 31 122 65 140 76
17 11 34 20 36 20 2 0 38 -18 80 -41z m-709 -204 c0 -2 -13 -11 -30 -20 -16
-9 -30 -12 -30 -7 0 5 10 14 23 20 25 12 37 14 37 7z m-70 -39 c0 -2 -7 -7
-16 -10 -8 -3 -12 -2 -9 4 6 10 25 14 25 6z m2357 -472 c-3 -3 -12 -4 -19 -1
-8 3 -5 6 6 6 11 1 17 -2 13 -5z m-27 -18 c0 -2 -9 -6 -20 -9 -11 -3 -18 -1
-14 4 5 9 34 13 34 5z m-155 -116 c4 -6 -6 -10 -22 -10 -22 0 -25 2 -13 10 19
12 27 12 35 0z m1235 -180 c0 -5 -2 -10 -4 -10 -2 0 -12 -3 -22 -7 -16 -6 -17
-5 -4 10 17 19 30 22 30 7z m-11 -72 c-1 -16 -3 -18 -6 -6 -2 9 -12 19 -21 21
-12 3 -10 5 6 6 17 1 22 -4 21 -21z m-68 -45 c13 -16 12 -17 -3 -4 -10 7 -18
15 -18 17 0 8 8 3 21 -13z m-16 -23 c3 -6 -1 -7 -9 -4 -18 7 -21 14 -7 14 6 0
13 -4 16 -10z m55 -20 c0 -5 -5 -10 -11 -10 -5 0 -7 5 -4 10 3 6 8 10 11 10 2
0 4 -4 4 -10z m26 -145 c19 -14 19 -14 -2 -15 -12 0 -24 7 -28 15 -7 19 5 19
30 0z m-16 -35 c0 -5 -8 -10 -17 -10 -15 0 -16 2 -3 10 19 12 20 12 20 0z m23
-5 c-3 -9 -8 -14 -10 -11 -3 3 -2 9 2 15 9 16 15 13 8 -4z m74 -91 c-3 -3 -12
-4 -19 -1 -8 3 -5 6 6 6 11 1 17 -2 13 -5z m-68 -61 c2 -2 -2 -3 -10 -3 -8 0
-20 10 -28 23 l-14 22 24 -20 c13 -11 26 -21 28 -22z m51 23 c-7 -7 -13 -7
-20 0 -6 6 -3 10 10 10 13 0 16 -4 10 -10z m-45 -75 c3 -5 2 -12 -3 -15 -5 -3
-9 1 -9 9 0 17 3 19 12 6z m-159 -47 c-3 -8 -1 -14 4 -14 6 0 10 -5 10 -12 0
-9 -3 -9 -12 0 -14 14 -19 54 -6 46 5 -4 7 -12 4 -20z m-6 -54 c0 -5 -5 -10
-11 -10 -5 0 -7 5 -4 10 3 6 8 10 11 10 2 0 4 -4 4 -10z m155 -1 c11 -16 1
-19 -13 -3 -7 8 -8 14 -3 14 5 0 13 -5 16 -11z m-130 -29 c-3 -5 -12 -10 -18
-10 -7 0 -6 4 3 10 19 12 23 12 15 0z m-118 -42 c-3 -8 -6 -5 -6 6 -1 11 2 17
5 13 3 -3 4 -12 1 -19z m83 12 c0 -5 -2 -10 -4 -10 -3 0 -8 5 -11 10 -3 6 -1
10 4 10 6 0 11 -4 11 -10z m120 -4 c0 -2 -7 -7 -16 -10 -8 -3 -12 -2 -9 4 6
10 25 14 25 6z m-390 -19 c0 -8 -7 -14 -15 -14 -25 0 -17 17 13 26 1 1 2 -5 2
-12z m-259 -25 c15 -17 13 -18 -20 -19 -33 -1 -34 0 -11 9 20 7 22 11 10 18
-8 5 -10 10 -5 10 6 0 18 -8 26 -18z m466 12 c-3 -3 -12 -4 -19 -1 -8 3 -5 6
6 6 11 1 17 -2 13 -5z m-397 -24 c0 -5 -5 -10 -11 -10 -5 0 -7 5 -4 10 3 6 8
10 11 10 2 0 4 -4 4 -10z m-150 -24 c0 -3 -4 -8 -10 -11 -5 -3 -10 -1 -10 4 0
6 5 11 10 11 6 0 10 -2 10 -4z m60 -6 c0 -5 -9 -10 -20 -10 -11 0 -20 5 -20
10 0 6 9 10 20 10 11 0 20 -4 20 -10z m74 -2 c-7 -11 -64 -11 -64 0 0 5 16 9
35 9 19 0 32 -4 29 -9z m31 2 c3 -5 1 -10 -4 -10 -6 0 -11 5 -11 10 0 6 2 10
4 10 3 0 8 -4 11 -10z m85 -1 c0 -3 -11 -6 -25 -6 -14 0 -25 3 -25 6 0 4 11 7
25 7 14 0 25 -3 25 -7z"/>
<path d="M5457 6161 c-26 -17 -52 -40 -32 -29 6 4 24 0 40 -8 l30 -14 -32 3
c-39 4 -44 -8 -7 -16 14 -2 31 1 37 8 7 6 18 10 26 7 8 -3 11 0 7 7 -4 6 -13
11 -20 11 -9 0 -12 9 -8 25 5 29 -3 30 -41 6z"/>
<path d="M5340 6100 c-9 -6 -10 -10 -3 -10 6 0 15 5 18 10 8 12 4 12 -15 0z"/>
<path d="M5385 6090 c-7 -11 58 -20 68 -9 4 5 5 7 1 5 -3 -2 -19 0 -35 4 -16
5 -31 5 -34 0z"/>
<path d="M5355 6070 c7 -11 45 -20 45 -10 0 4 -11 10 -25 12 -13 3 -22 2 -20
-2z"/>
<path d="M5160 6040 c-9 -6 -10 -10 -3 -10 6 0 15 5 18 10 8 12 4 12 -15 0z"/>
<path d="M5340 6046 c0 -2 7 -7 16 -10 8 -3 12 -2 9 4 -6 10 -25 14 -25 6z"/>
<path d="M5100 6030 c0 -7 24 -20 36 -20 13 0 1 19 -16 23 -11 3 -20 2 -20 -3z"/>
<path d="M5298 6023 c6 -2 18 -2 25 0 6 3 1 5 -13 5 -14 0 -19 -2 -12 -5z"/>
<path d="M4935 6011 c-3 -6 4 -9 15 -8 11 1 20 5 20 9 0 11 -28 10 -35 -1z"/>
<path d="M5085 6000 c-3 -5 -2 -10 4 -10 5 0 13 5 16 10 3 6 2 10 -4 10 -5 0
-13 -4 -16 -10z"/>
<path d="M4740 5746 c0 -8 51 -13 56 -5 3 5 -9 9 -25 9 -17 0 -31 -2 -31 -4z"/>
<path d="M4911 5609 c-13 -5 -22 -11 -20 -14 8 -7 49 7 49 16 0 5 -1 9 -2 8
-2 0 -14 -5 -27 -10z"/>
<path d="M4921 5577 c-9 -12 -8 -16 3 -20 19 -7 27 4 17 21 -6 10 -10 10 -20
-1z"/>
<path d="M4310 5506 c0 -10 28 -13 41 -5 10 6 7 9 -13 9 -16 0 -28 -2 -28 -4z"/>
<path d="M4280 5470 c-9 -6 -10 -10 -3 -10 6 0 15 5 18 10 8 12 4 12 -15 0z"/>
<path d="M3820 5246 c0 -8 -6 -17 -12 -19 -7 -3 -3 -6 8 -6 21 -1 39 21 27 33
-11 11 -23 6 -23 -8z"/>
<path d="M3760 5229 c0 -5 5 -7 10 -4 6 3 10 8 10 11 0 2 -4 4 -10 4 -5 0 -10
-5 -10 -11z"/>
<path d="M3778 5203 c7 -3 16 -2 19 1 4 3 -2 6 -13 5 -11 0 -14 -3 -6 -6z"/>
<path d="M4174 5178 c0 -16 2 -16 18 -1 10 9 18 17 18 17 0 1 -8 2 -18 2 -10
0 -18 -8 -18 -18z"/>
<path d="M3722 5175 c-16 -19 -3 -19 22 0 14 11 16 15 5 15 -8 -1 -20 -7 -27
-15z"/>
<path d="M3670 5140 c0 -5 7 -7 15 -4 8 4 15 8 15 10 0 2 -7 4 -15 4 -8 0 -15
-4 -15 -10z"/>
<path d="M3959 5095 c-3 -5 -3 -26 1 -45 3 -20 8 -29 11 -20 6 18 -4 79 -12
65z"/>
<path d="M3980 5075 c0 -11 5 -27 10 -35 8 -12 10 -12 10 5 0 11 -5 27 -10 35
-8 12 -10 12 -10 -5z"/>
<path d="M3885 5067 c-6 -7 -9 -22 -7 -34 4 -27 -14 -31 -21 -5 -3 10 -5 6 -6
-11 -1 -25 2 -28 22 -21 29 9 38 24 32 52 -3 12 -1 22 5 22 5 0 10 -13 10 -30
0 -16 5 -30 10 -30 11 0 13 30 4 54 -7 19 -35 20 -49 3z m12 -39 c-3 -8 -6 -5
-6 6 -1 11 2 17 5 13 3 -3 4 -12 1 -19z"/>
<path d="M3796 5011 c-10 -11 -30 -24 -45 -30 -37 -16 -55 -45 -36 -61 8 -7
15 -8 15 -3 0 5 7 18 15 29 14 18 15 18 8 0 -6 -17 -3 -17 25 4 18 13 32 27
32 32 0 4 5 8 11 8 5 0 7 -4 4 -10 -3 -5 -1 -10 4 -10 12 0 14 20 5 44 -8 21
-17 20 -38 -3z"/>
<path d="M5360 4803 c-63 -27 -118 -96 -144 -180 -13 -40 19 -26 44 20 35 63
79 116 123 148 43 31 33 36 -23 12z"/>
<path d="M5109 4510 c-19 -22 -32 -40 -28 -40 4 0 14 -3 23 -6 10 -4 21 7 35
35 34 66 23 70 -30 11z"/>
<path d="M1225 5127 c-11 -7 -58 -30 -105 -51 -47 -21 -143 -67 -215 -101 -71
-35 -164 -79 -205 -98 -103 -49 -241 -124 -262 -144 -18 -16 -16 -18 34 -33
29 -9 74 -26 99 -38 25 -11 63 -27 85 -35 68 -26 238 -96 254 -105 10 -6 30
-1 60 16 82 45 124 69 165 92 95 54 236 129 437 234 l97 50 -47 26 c-26 15
-63 36 -82 47 -114 65 -258 142 -275 147 -11 3 -29 0 -40 -7z"/>
<path d="M3090 4771 c0 -6 4 -13 10 -16 6 -3 7 1 4 9 -7 18 -14 21 -14 7z"/>
<path d="M1482 4180 c0 -14 2 -19 5 -12 2 6 2 18 0 25 -3 6 -5 1 -5 -13z"/>
<path d="M1505 4170 c-3 -5 -2 -10 4 -10 5 0 13 5 16 10 3 6 2 10 -4 10 -5 0
-13 -4 -16 -10z"/>
<path d="M1755 3940 c-3 -5 -1 -10 4 -10 6 0 11 5 11 10 0 6 -2 10 -4 10 -3 0
-8 -4 -11 -10z"/>
<path d="M2925 1443 c-22 -8 -54 -20 -72 -28 -17 -8 -38 -15 -47 -15 -8 0 -35
-7 -60 -15 -31 -11 -51 -12 -67 -6 l-24 10 23 0 c12 1 22 6 22 11 0 14 -4 13
-72 -21 l-61 -31 44 -20 c80 -37 118 -31 272 45 75 37 137 71 137 75 0 13 -50
10 -95 -5z"/>
<path d="M2020 1400 c-52 -27 -88 -49 -79 -49 22 -1 179 77 179 89 0 13 10 17
-100 -40z"/>
<path d="M3027 1334 c-26 -14 -47 -29 -47 -34 0 -13 201 -110 230 -110 13 0
20 -3 17 -7 -7 -6 37 -33 55 -33 5 0 18 -9 30 -20 12 -11 32 -20 45 -20 13 0
23 -4 23 -10 0 -5 7 -10 15 -10 8 0 15 -4 15 -10 0 -5 9 -10 20 -10 11 0 20
-3 20 -8 0 -4 15 -13 33 -21 17 -8 59 -27 92 -43 65 -31 139 -46 148 -30 9 14
-158 122 -328 212 -44 23 -109 59 -145 79 -36 21 -90 51 -120 68 l-56 31 -47
-24z"/>
<path d="M7610 10179 c0 -5 5 -7 10 -4 6 3 10 8 10 11 0 2 -4 4 -10 4 -5 0
-10 -5 -10 -11z"/>
<path d="M7567 10125 c-4 -8 -3 -16 1 -19 4 -3 9 4 9 15 2 23 -3 25 -10 4z"/>
<path d="M7480 10089 c0 -5 5 -7 10 -4 6 3 10 8 10 11 0 2 -4 4 -10 4 -5 0
-10 -5 -10 -11z"/>
<path d="M7522 10071 c-11 -7 -11 -9 2 -14 10 -4 16 -1 16 8 0 17 -1 17 -18 6z"/>
<path d="M7280 10000 c-8 -5 -10 -10 -5 -10 6 0 17 5 25 10 8 5 11 10 5 10 -5
0 -17 -5 -25 -10z"/>
<path d="M7245 9870 c3 -5 8 -10 11 -10 2 0 4 5 4 10 0 6 -5 10 -11 10 -5 0
-7 -4 -4 -10z"/>
<path d="M7108 9773 c7 -3 16 -2 19 1 4 3 -2 6 -13 5 -11 0 -14 -3 -6 -6z"/>
<path d="M7118 9753 c7 -3 16 -2 19 1 4 3 -2 6 -13 5 -11 0 -14 -3 -6 -6z"/>
<path d="M7020 9700 c-13 -9 -13 -11 0 -20 19 -12 50 -13 50 -1 0 5 -10 7 -22
5 -13 -2 -17 -2 -10 2 13 6 17 24 5 24 -5 0 -15 -5 -23 -10z"/>
<path d="M7028 9653 c7 -3 16 -2 19 1 4 3 -2 6 -13 5 -11 0 -14 -3 -6 -6z"/>
<path d="M6975 9630 c-19 -8 -19 -9 3 -9 12 -1 22 4 22 9 0 6 -1 10 -2 9 -2 0
-12 -4 -23 -9z"/>
<path d="M6842 9461 c-11 -7 -10 -10 3 -15 22 -8 22 -8 22 9 0 17 -6 18 -25 6z"/>
<path d="M6710 9399 c0 -5 5 -7 10 -4 6 3 10 8 10 11 0 2 -4 4 -10 4 -5 0 -10
-5 -10 -11z"/>
<path d="M6741 9353 c0 -25 1 -26 9 -8 12 27 12 35 0 35 -5 0 -10 -12 -9 -27z"/>
<path d="M5515 9329 c-51 -36 -98 -105 -91 -133 3 -14 1 -28 -4 -31 -6 -4 -8
-10 -5 -15 3 -5 -2 -13 -12 -19 -16 -8 -15 -10 7 -20 86 -37 176 -68 183 -64
5 3 24 30 44 60 l34 54 -29 62 c-27 59 -76 127 -91 127 -3 0 -20 -10 -36 -21z"/>
<path d="M6690 9332 c0 -16 32 -12 37 5 3 7 -4 11 -16 10 -12 -1 -21 -7 -21
-15z"/>
<path d="M6625 9310 c-7 -12 2 -12 30 0 19 8 19 9 -2 9 -12 1 -25 -3 -28 -9z"/>
<path d="M6595 9300 c-3 -5 -1 -10 4 -10 6 0 11 5 11 10 0 6 -2 10 -4 10 -3 0
-8 -4 -11 -10z"/>
<path d="M6815 9160 c-3 -5 -1 -10 4 -10 6 0 11 5 11 10 0 6 -2 10 -4 10 -3 0
-8 -4 -11 -10z"/>
<path d="M6910 9100 c-11 -8 -7 -9 15 -4 37 8 45 14 19 14 -10 0 -26 -5 -34
-10z"/>
<path d="M6935 9080 c-3 -5 -1 -10 4 -10 6 0 11 5 11 10 0 6 -2 10 -4 10 -3 0
-8 -4 -11 -10z"/>
<path d="M7010 9015 c0 -7 30 -13 34 -7 3 4 -4 9 -15 9 -10 1 -19 0 -19 -2z"/>
<path d="M5531 8391 c-11 -7 -9 -10 8 -16 25 -8 36 -2 26 14 -8 13 -15 14 -34
2z"/>
<path d="M5984 8389 c-3 -6 -1 -16 5 -22 8 -8 11 -5 11 11 0 24 -5 28 -16 11z"/>
<path d="M5316 8188 c-13 -29 -32 -72 -42 -96 -9 -23 -22 -41 -28 -39 -13 5
-82 -28 -91 -43 -3 -5 11 -16 31 -25 20 -8 34 -18 31 -22 -4 -3 1 -12 10 -19
16 -11 21 -3 53 72 20 46 39 86 43 90 4 4 7 14 7 23 -1 13 -4 12 -17 -4 l-16
-20 8 20 c4 11 15 41 25 68 24 63 16 60 -14 -5z"/>
<path d="M7858 8093 c-27 -14 -46 -28 -43 -31 2 -3 11 1 20 8 9 7 18 11 21 8
3 -3 -35 -25 -83 -48 -48 -24 -200 -99 -338 -167 -137 -68 -254 -123 -260
-123 -10 0 556 283 604 301 13 5 22 12 19 14 -6 6 -129 -51 -418 -194 -113
-56 -211 -101 -218 -101 -8 0 -12 -6 -9 -12 2 -7 -3 -21 -12 -31 -14 -17 -15
-50 -13 -265 4 -237 5 -248 25 -271 l22 -24 -22 14 c-13 7 -25 20 -28 27 -3 7
-7 118 -10 245 -3 128 -8 242 -10 254 -3 14 1 26 12 32 10 6 13 11 7 11 -6 0
-21 -8 -32 -19 -21 -18 -22 -25 -22 -261 l0 -242 30 -28 c16 -15 43 -33 59
-40 27 -11 37 -9 97 19 37 17 68 30 70 28 1 -1 4 -278 6 -614 l3 -612 27 -28
c30 -31 313 -219 558 -370 85 -52 209 -130 275 -173 66 -42 137 -87 158 -100
21 -12 43 -27 50 -33 48 -44 93 -48 101 -9 7 34 6 1330 -2 1367 -3 19 -7 23
-13 13 -6 -9 -9 -5 -9 14 0 15 -5 30 -10 33 -6 4 -7 11 -4 17 4 6 2 8 -4 4 -6
-3 -15 1 -20 9 -5 9 -15 17 -24 19 -18 2 -188 105 -188 113 0 3 7 2 16 -1 9
-3 12 -2 9 5 -4 6 -14 8 -22 5 -19 -8 -205 103 -196 117 3 6 1 7 -6 3 -7 -4
-69 28 -149 77 -310 191 -389 239 -435 269 -32 20 -63 31 -96 33 -28 2 -73 16
-108 34 -33 17 -66 31 -72 31 -7 0 -11 22 -11 60 0 59 1 61 30 67 30 5 30 6
30 69 0 60 2 65 25 74 14 5 44 18 68 29 23 10 72 31 109 46 64 25 240 112 411
204 42 22 80 41 83 41 4 0 -1 -231 -5 -258 -1 -2 -6 0 -12 3 -6 4 -8 14 -5 22
7 16 4 15 -71 -34 -29 -19 -57 -32 -63 -28 -6 4 -9 1 -8 -7 2 -7 -5 -12 -14
-12 -10 1 -15 -2 -12 -7 3 -5 -2 -10 -10 -10 -9 -1 -20 -3 -26 -4 -5 -1 -14
-3 -18 -4 -5 0 -25 -16 -44 -35 -19 -19 -43 -36 -54 -40 -10 -3 13 -3 51 0 83
6 107 12 100 25 -3 5 2 6 11 2 13 -5 15 -3 9 7 -5 8 -3 11 6 8 8 -3 24 -1 36
3 14 5 23 4 26 -4 3 -8 9 -7 18 5 8 10 25 19 38 20 19 2 24 -2 26 -24 2 -16
-4 -33 -16 -43 -10 -10 -16 -22 -13 -27 3 -5 -2 -16 -12 -23 -17 -13 -17 -14
-2 -15 9 0 20 5 23 10 14 22 26 8 23 -27 l-3 -38 -135 -57 c-149 -63 -240
-109 -240 -120 0 -5 21 -18 48 -30 26 -12 49 -25 52 -28 4 -6 224 -154 258
-174 6 -4 12 -5 12 -3 0 3 -39 31 -87 63 -49 32 -89 62 -91 66 -2 4 -10 8 -18
8 -8 0 -14 5 -14 10 0 6 -4 10 -10 10 -5 0 -20 10 -32 22 l-23 22 165 84 c91
46 172 90 179 98 12 11 16 68 18 320 2 216 0 311 -8 320 -6 8 -8 14 -3 14 5 0
2 5 -6 10 -24 16 -52 11 -102 -17z m91 13 c-2 -2 -17 -6 -34 -10 -22 -5 -26
-4 -15 4 14 9 59 15 49 6z m-451 -954 c31 -21 71 -44 87 -52 17 -8 66 -35 110
-61 44 -25 112 -64 150 -86 39 -23 88 -51 110 -63 36 -20 100 -59 310 -190 33
-20 76 -47 97 -59 20 -12 42 -35 49 -54 15 -37 26 -527 12 -527 -15 0 -240
219 -278 270 -33 46 -65 65 -65 40 0 -5 -4 -10 -10 -10 -5 0 -10 7 -10 15 0
19 -41 84 -69 109 -26 24 -27 9 -1 -24 11 -14 20 -30 20 -37 0 -6 9 -15 20
-18 11 -3 20 -11 20 -16 0 -13 -14 -11 -28 3 -6 6 -15 8 -19 4 -10 -10 37 -45
60 -46 10 0 17 -8 17 -20 0 -21 -15 -27 -25 -10 -13 21 -25 9 -19 -17 l7 -28
-22 20 c-13 11 -18 21 -12 23 8 3 7 10 -1 25 -11 21 -11 21 -19 2 -9 -22 -1
-80 13 -109 9 -16 7 -18 -6 -13 -13 5 -15 2 -10 -18 5 -20 2 -24 -15 -22 -12
1 -22 6 -22 12 -1 5 -2 17 -3 25 0 8 -11 16 -22 18 -27 4 -34 27 -34 122 0 45
-4 70 -9 62 -6 -10 -10 -7 -15 12 -6 26 -26 36 -26 14 -1 -84 -10 -209 -15
-233 -4 -16 -4 -27 0 -23 4 4 13 1 19 -7 6 -9 23 -18 37 -20 25 -5 27 -3 22
30 -8 59 12 39 25 -25 7 -33 17 -58 21 -55 5 3 12 -2 15 -11 3 -8 10 -12 16
-9 6 3 13 -1 16 -9 3 -9 10 -13 15 -10 5 3 14 2 20 -2 8 -5 8 -9 -1 -14 -9 -5
-3 -15 20 -31 31 -24 31 -24 8 -31 -23 -6 -23 -6 -2 -13 12 -4 26 -17 32 -30
10 -22 98 -72 109 -62 3 3 -5 16 -16 29 -23 24 -11 40 12 16 18 -18 28 -48 17
-48 -21 0 -9 -18 15 -22 20 -4 25 -1 25 16 0 12 -6 28 -12 34 -10 10 -6 19 21
44 18 17 36 27 40 22 3 -5 32 -10 64 -10 57 -2 58 -1 53 22 -3 12 -2 26 4 29
12 7 14 -603 2 -622 -5 -8 -86 38 -262 149 -140 88 -282 177 -315 198 -285
177 -423 265 -439 279 -18 15 -18 35 -11 486 7 449 9 529 19 602 3 18 1 35 -4
38 -13 8 0 35 17 35 8 0 40 -17 71 -38z m581 -1054 c-1 -68 -6 -61 -11 15 -2
26 0 47 4 47 5 0 7 -28 7 -62z"/>
<path d="M7760 6635 c0 -13 6 -28 13 -32 6 -4 12 -15 13 -23 2 -25 -37 -22
-76 5 -67 46 -146 67 -95 25 16 -14 21 -45 5 -35 -11 7 -25 -39 -16 -54 3 -5
2 -11 -2 -13 -5 -1 -12 -26 -16 -55 -5 -39 -3 -55 9 -66 8 -9 19 -27 25 -42 5
-14 14 -23 20 -20 13 8 52 -19 42 -29 -4 -4 5 -5 21 -1 27 7 40 -9 15 -18 -7
-2 0 -10 17 -18 17 -7 34 -18 38 -24 6 -7 10 -6 13 2 3 7 12 9 20 6 13 -5 15
12 13 119 -1 69 1 131 5 139 4 8 1 6 -7 -3 -16 -21 -43 -25 -30 -5 4 6 8 26 9
42 0 17 4 40 7 51 6 16 3 23 -12 27 -14 3 -18 11 -14 26 3 12 1 21 -6 21 -6 0
-11 -11 -11 -25z m-57 -79 c19 -14 23 -36 7 -36 -5 0 -10 7 -10 15 0 7 -8 19
-17 24 -10 6 -13 10 -8 10 6 0 18 -6 28 -13z m24 -123 c-3 -2 -12 8 -21 22
-14 22 -15 29 -4 42 11 13 14 11 20 -22 5 -21 7 -40 5 -42z"/>
<path d="M7826 6575 c4 -8 11 -15 16 -15 6 0 5 6 -2 15 -7 8 -14 15 -16 15 -2
0 -1 -7 2 -15z"/>
<path d="M7815 6530 c3 -5 8 -10 11 -10 2 0 4 5 4 10 0 6 -5 10 -11 10 -5 0
-7 -4 -4 -10z"/>
<path d="M7880 6523 c0 -5 4 -14 9 -21 7 -11 9 -11 14 1 3 8 3 18 0 21 -9 8
-23 7 -23 -1z"/>
<path d="M7890 6466 c0 -8 4 -17 9 -20 5 -4 7 3 4 14 -6 23 -13 26 -13 6z"/>
<path d="M7919 6368 c4 -28 6 -29 9 -9 2 13 0 27 -5 32 -6 6 -7 -3 -4 -23z"/>
<path d="M7949 6380 c-6 -18 -4 -120 2 -120 13 0 22 101 10 113 -6 6 -12 9
-12 7z"/>
<path d="M7900 6315 c0 -13 5 -27 10 -30 6 -3 10 4 10 17 0 18 2 20 10 8 8
-13 10 -13 10 1 0 9 -9 19 -20 22 -16 4 -20 0 -20 -18z"/>
<path d="M8520 7951 l-25 -7 2 -393 c0 -216 4 -402 7 -414 5 -23 34 -42 318
-220 81 -51 192 -123 245 -160 54 -38 161 -108 238 -157 77 -49 200 -128 274
-176 249 -163 357 -225 379 -217 16 6 18 700 1 736 -12 26 -110 94 -251 173
-55 31 -82 51 -75 56 7 5 2 7 -13 6 -16 -2 -24 2 -22 10 1 8 -2 11 -8 7 -9 -6
-130 60 -130 71 0 3 5 2 12 -2 7 -4 8 -3 4 4 -4 6 -14 8 -23 5 -10 -4 -14 -2
-10 4 4 6 -1 10 -11 9 -9 0 -16 4 -15 10 1 7 -5 11 -15 10 -9 0 -16 5 -14 12
1 8 -2 11 -7 7 -13 -8 -134 69 -124 79 4 4 1 4 -8 1 -8 -3 -23 2 -34 11 -11 8
-14 12 -6 8 10 -5 12 -3 7 5 -5 7 -15 10 -24 6 -9 -3 -13 -3 -9 1 8 8 -11 34
-25 34 -5 0 -6 -5 -2 -12 4 -7 3 -8 -5 -4 -6 4 -9 12 -5 17 3 6 -4 13 -16 16
-18 5 -21 12 -19 52 2 26 -1 53 -6 61 -5 9 -4 11 3 6 7 -4 12 -3 12 2 0 5 -69
50 -152 102 -312 190 -347 213 -341 223 3 6 1 7 -5 3 -6 -4 -25 0 -41 9 -17 8
-31 15 -33 14 -2 -1 -14 -4 -28 -8z m170 -118 c52 -31 162 -97 243 -147 l148
-91 -7 -95 -6 -96 78 -50 c44 -28 111 -70 149 -94 39 -24 98 -61 133 -83 35
-22 76 -47 91 -56 67 -38 368 -221 384 -233 15 -11 17 -27 15 -108 l-3 -95
-45 46 c-25 25 -74 65 -110 89 -36 24 -104 74 -151 112 -48 37 -90 68 -94 68
-3 0 -6 -30 -5 -67 1 -38 1 -92 1 -122 -1 -53 -1 -54 -20 -37 -11 10 -25 15
-31 11 -6 -3 -9 -3 -8 2 2 4 -2 9 -7 11 -6 1 -11 -24 -13 -57 -3 -56 -1 -62
33 -99 26 -30 35 -48 35 -76 0 -20 -2 -36 -5 -36 -7 0 -274 163 -359 218 -38
25 -71 54 -73 63 -3 10 -63 52 -137 95 -186 109 -306 183 -343 211 l-33 24 0
357 c0 196 3 367 6 380 8 28 11 27 134 -45z m1011 -1188 c10 -16 7 -16 -15 4
-14 14 -35 41 -47 60 l-20 36 36 -40 c19 -22 40 -49 46 -60z m9 28 c0 -4 -11
4 -25 17 -14 13 -25 27 -25 31 0 5 11 -3 25 -17 14 -14 25 -28 25 -31z m101
-10 c13 -16 12 -17 -3 -4 -10 7 -18 15 -18 17 0 8 8 3 21 -13z m-171 -83 c0
-5 -4 -10 -10 -10 -5 0 -10 5 -10 10 0 6 5 10 10 10 6 0 10 -4 10 -10z m230
-46 c0 -8 -4 -12 -10 -9 -5 3 -10 13 -10 21 0 8 5 12 10 9 6 -3 10 -13 10 -21z
m50 -48 c0 -16 -3 -15 -20 7 -11 14 -20 28 -20 31 0 3 9 1 20 -6 11 -7 20 -21
20 -32z"/>
<path d="M8575 7350 c-3 -6 1 -7 9 -4 18 7 21 14 7 14 -6 0 -13 -4 -16 -10z"/>
<path d="M8590 7336 c0 -2 7 -7 16 -10 8 -3 12 -2 9 4 -6 10 -25 14 -25 6z"/>
<path d="M8684 7305 c-8 -18 -37 -35 -31 -17 2 7 -6 12 -22 12 -5 0 -11 -13
-13 -30 -5 -32 6 -42 122 -110 l48 -28 5 41 c6 41 2 50 -49 116 -2 2 -10 -2
-19 -9 -15 -13 -14 -14 -28 30 -4 12 -7 11 -13 -5z m83 -132 c-7 -7 -46 11
-51 23 -5 12 0 11 24 -2 16 -10 28 -19 27 -21z"/>
<path d="M8856 7065 c4 -8 11 -15 16 -15 6 0 5 6 -2 15 -7 8 -14 15 -16 15 -2
0 -1 -7 2 -15z"/>
<path d="M8915 7030 c3 -5 8 -10 11 -10 2 0 4 5 4 10 0 6 -5 10 -11 10 -5 0
-7 -4 -4 -10z"/>
<path d="M5010 7905 c-7 -9 -10 -18 -7 -22 8 -7 37 15 37 28 0 14 -16 11 -30
-6z"/>
<path d="M4945 7870 c-22 -22 -34 -40 -27 -40 7 0 12 5 12 11 0 5 5 7 10 4 6
-3 10 -1 10 6 0 6 10 20 22 30 11 11 19 21 16 24 -2 2 -22 -13 -43 -35z"/>
<path d="M4965 7830 c-3 -5 -1 -10 4 -10 6 0 11 5 11 10 0 6 -2 10 -4 10 -3 0
-8 -4 -11 -10z"/>
<path d="M7870 7815 c-130 -72 -206 -124 -110 -75 22 11 40 18 40 15 0 -9 76
33 90 50 18 22 9 26 -20 10z"/>
<path d="M6348 7583 c7 -3 16 -2 19 1 4 3 -2 6 -13 5 -11 0 -14 -3 -6 -6z"/>
<path d="M6395 7580 c3 -5 8 -10 11 -10 2 0 4 5 4 10 0 6 -5 10 -11 10 -5 0
-7 -4 -4 -10z"/>
<path d="M3514 7462 c3 -6 32 -25 62 -43 40 -22 52 -34 43 -40 -11 -6 -10 -9
4 -15 9 -3 15 -9 12 -14 -2 -4 6 -16 18 -27 42 -36 47 -36 47 -3 0 27 -8 36
-82 83 -112 72 -112 72 -104 59z"/>
<path d="M6440 7390 c0 -32 14 -40 24 -14 9 24 7 31 -5 14 -9 -12 -10 -11 -6
8 3 12 1 22 -4 22 -5 0 -9 -13 -9 -30z"/>
<path d="M9490 7256 c0 -3 9 -10 20 -16 11 -6 20 -8 20 -6 0 3 -9 10 -20 16
-11 6 -20 8 -20 6z"/>
<path d="M9540 7226 c0 -3 9 -10 20 -16 11 -6 20 -8 20 -6 0 3 -9 10 -20 16
-11 6 -20 8 -20 6z"/>
<path d="M7905 7053 c6 -6 28 -20 50 -32 22 -13 31 -15 20 -6 -22 18 -86 53
-70 38z"/>
<path d="M2140 7030 c-9 -6 -10 -10 -3 -10 6 0 15 5 18 10 8 12 4 12 -15 0z"/>
<path d="M2176 7014 c-49 -18 -60 -28 -23 -22 18 4 27 1 27 -8 0 -23 14 -16
32 16 19 34 18 34 -36 14z"/>
<path d="M1785 6920 c-54 -54 -65 -60 -65 -31 0 25 -18 30 -60 15 -19 -7 -30
-13 -25 -14 6 0 3 -5 -5 -10 -8 -5 -25 -7 -38 -3 -22 5 -23 4 -11 -15 13 -20
14 -20 33 -4 18 16 19 16 13 -1 -4 -10 -7 -21 -7 -23 0 -2 -9 -4 -20 -4 -11 0
-20 5 -20 10 0 19 -20 10 -56 -24 -20 -19 -49 -36 -64 -40 -28 -5 -30 -12 -16
-53 7 -23 22 -30 28 -14 2 5 19 11 38 15 29 5 32 4 19 -6 -15 -10 -13 -15 22
-40 26 -19 39 -36 39 -51 0 -17 9 -26 33 -35 49 -17 55 -15 62 21 8 38 72 138
85 134 6 -1 20 13 31 31 12 17 16 32 11 32 -6 0 -8 8 -5 18 2 10 -2 24 -11 31
-17 15 -12 33 22 79 34 45 24 40 -33 -18z m-148 -102 c-3 -8 -6 -5 -6 6 -1 11
2 17 5 13 3 -3 4 -12 1 -19z"/>
<path d="M3760 6649 c0 -107 4 -200 8 -207 9 -14 101 -19 150 -8 17 4 32 5 32
2 0 -3 -15 -10 -32 -15 -31 -9 -29 -10 20 -9 29 1 55 5 58 10 3 4 -4 8 -16 8
-12 0 -19 4 -15 10 3 5 12 7 20 3 8 -3 15 0 15 6 0 6 -7 11 -17 11 -9 0 -13 3
-10 7 4 3 2 12 -4 19 -7 8 -7 14 1 19 13 8 32 -3 25 -15 -3 -4 4 -6 15 -3 11
3 20 9 20 14 0 5 -6 6 -14 3 -8 -3 -17 -1 -20 4 -3 6 1 12 9 16 8 3 15 11 15
17 0 8 -7 6 -18 -4 -10 -10 -27 -17 -38 -16 -10 0 -13 3 -6 6 19 8 14 21 -10
26 -18 3 -17 5 7 6 23 1 27 3 15 11 -13 8 -12 10 3 10 9 0 17 -4 17 -10 0 -5
5 -10 10 -10 6 0 10 7 10 15 0 8 -6 15 -14 15 -8 0 -18 5 -22 11 -4 8 0 9 15
4 33 -10 46 5 17 20 -14 7 -33 15 -43 18 -10 3 -3 5 15 6 17 0 32 5 32 10 0 5
-9 7 -20 4 -12 -3 -20 0 -20 6 0 7 5 9 12 5 7 -5 8 -3 4 5 -5 7 -14 10 -22 7
-8 -3 -14 -1 -14 3 0 5 6 12 13 14 6 3 0 6 -15 6 -41 1 -45 21 -4 21 20 0 36
-4 36 -10 0 -5 14 -10 30 -10 47 0 35 15 -22 30 -70 17 -187 66 -210 87 -17
15 -18 8 -18 -178z m150 97 c0 -3 -4 -8 -10 -11 -5 -3 -10 -1 -10 4 0 6 5 11
10 11 6 0 10 -2 10 -4z"/>
<path d="M8300 6816 c0 -3 9 -10 20 -16 11 -6 20 -8 20 -6 0 3 -9 10 -20 16
-11 6 -20 8 -20 6z"/>
<path d="M8380 6766 c0 -2 8 -10 18 -17 15 -13 16 -12 3 4 -13 16 -21 21 -21
13z"/>
<path d="M4063 6713 c9 -2 25 -2 35 0 9 3 1 5 -18 5 -19 0 -27 -2 -17 -5z"/>
<path d="M4095 6700 c-39 -8 -39 -8 13 -7 29 0 55 4 58 9 6 9 -13 9 -71 -2z"/>
<path d="M4045 6660 c3 -5 8 -10 11 -10 2 0 4 5 4 10 0 6 -5 10 -11 10 -5 0
-7 -4 -4 -10z"/>
<path d="M4890 6626 c0 -2 9 -6 20 -9 11 -3 18 -1 14 4 -5 9 -34 13 -34 5z"/>
<path d="M2008 6562 c-62 -48 -161 -174 -116 -146 6 4 4 -3 -5 -16 -12 -18
-13 -27 -4 -47 10 -23 11 -23 48 35 43 68 129 212 126 212 -1 0 -23 -17 -49
-38z"/>
<path d="M4813 6583 c9 -2 23 -2 30 0 6 3 -1 5 -18 5 -16 0 -22 -2 -12 -5z"/>
<path d="M4790 6560 c0 -5 7 -10 15 -10 8 0 15 5 15 10 0 6 -7 10 -15 10 -8 0
-15 -4 -15 -10z"/>
<path d="M4740 6546 c0 -9 30 -14 35 -6 4 6 -3 10 -14 10 -12 0 -21 -2 -21 -4z"/>
<path d="M4030 6419 c0 -5 5 -7 10 -4 6 3 10 8 10 11 0 2 -4 4 -10 4 -5 0 -10
-5 -10 -11z"/>
<path d="M4080 6400 c0 -5 7 -10 16 -10 8 0 12 5 9 10 -3 6 -10 10 -16 10 -5
0 -9 -4 -9 -10z"/>
<path d="M4120 6400 c0 -5 5 -10 10 -10 6 0 10 5 10 10 0 6 -4 10 -10 10 -5 0
-10 -4 -10 -10z"/>
<path d="M4033 6393 c9 -2 23 -2 30 0 6 3 -1 5 -18 5 -16 0 -22 -2 -12 -5z"/>
<path d="M4178 6373 c7 -3 16 -2 19 1 4 3 -2 6 -13 5 -11 0 -14 -3 -6 -6z"/>
<path d="M4018 6363 c7 -3 16 -2 19 1 4 3 -2 6 -13 5 -11 0 -14 -3 -6 -6z"/>
<path d="M4338 6313 c7 -3 16 -2 19 1 4 3 -2 6 -13 5 -11 0 -14 -3 -6 -6z"/>
<path d="M4170 6240 c8 -5 20 -10 25 -10 6 0 3 5 -5 10 -8 5 -19 10 -25 10 -5
0 -3 -5 5 -10z"/>
<path d="M4110 6226 c0 -9 39 -13 51 -5 10 6 4 9 -18 9 -18 0 -33 -2 -33 -4z"/>
<path d="M4070 6209 c0 -5 4 -9 9 -9 5 0 16 -3 25 -6 9 -3 16 -2 16 4 0 5 -11
12 -25 14 -14 3 -25 1 -25 -3z"/>
<path d="M8795 5934 c-13 -31 -15 -163 -15 -986 l0 -949 38 -38 c20 -20 60
-50 87 -66 28 -16 100 -60 160 -99 61 -38 160 -99 220 -136 119 -72 311 -191
444 -276 82 -53 114 -64 126 -45 3 6 5 445 5 976 0 808 -2 971 -14 993 -9 18
-67 59 -168 121 -157 96 -235 144 -393 246 -166 107 -350 219 -412 251 -34 18
-57 35 -50 37 9 4 9 6 0 6 -7 1 -19 -15 -28 -35z m250 -230 c99 -59 234 -138
300 -177 212 -123 451 -271 471 -291 12 -13 14 -141 12 -901 l-3 -886 -190
117 c-104 65 -266 165 -360 222 -222 137 -356 217 -378 225 -14 5 -21 0 -29
-23 -5 -17 -13 -30 -17 -30 -8 0 -21 927 -21 1503 0 324 1 347 18 347 9 0 98
-48 197 -106z"/>
<path d="M9120 5440 c0 -5 7 -10 16 -10 8 0 12 5 9 10 -3 6 -10 10 -16 10 -5
0 -9 -4 -9 -10z"/>
<path d="M9160 5421 c0 -5 7 -12 16 -15 9 -4 14 -9 11 -12 -3 -3 -16 -1 -29 5
-20 10 -20 10 -5 -1 129 -88 589 -378 601 -378 3 0 6 7 6 15 0 18 -155 121
-285 191 -94 50 -176 101 -186 117 -4 5 -11 7 -17 3 -5 -3 -12 4 -16 17 -5 18
-8 19 -16 7 -7 -12 -12 -12 -22 -2 -9 9 -9 12 2 12 8 0 -1 11 -20 25 -38 28
-40 29 -40 16z"/>
<path d="M8925 5268 c5 -11 -2 -14 -25 -13 -35 2 -39 -9 -10 -27 11 -7 20 -17
20 -22 0 -5 -9 -1 -20 9 -11 10 -20 14 -19 9 1 -20 60 -56 84 -51 14 2 30 -2
36 -9 6 -8 15 -11 20 -8 5 3 12 -2 15 -11 4 -10 13 -13 24 -10 10 3 21 1 25
-5 11 -18 35 -12 28 8 -3 9 -3 14 1 10 4 -3 9 -14 10 -24 2 -12 16 -22 39 -27
21 -5 37 -14 37 -19 0 -6 7 -8 15 -4 9 3 15 0 15 -10 0 -8 5 -12 10 -9 6 3 17
-1 26 -10 9 -9 23 -14 31 -11 8 4 11 1 7 -5 -4 -7 0 -9 13 -5 30 10 52 -14 55
-61 1 -23 5 -40 10 -37 4 3 8 -2 8 -11 0 -10 5 -13 13 -9 9 6 9 4 -1 -8 -10
-13 -9 -20 8 -39 23 -29 26 -12 6 44 -21 56 7 49 71 -20 29 -31 53 -50 53 -42
0 9 5 7 12 -6 13 -23 29 -35 39 -29 4 2 23 -3 44 -12 59 -24 122 -33 122 -17
0 7 -4 13 -8 13 -4 0 -44 25 -90 55 -46 30 -87 55 -92 55 -5 0 -41 24 -80 54
-40 29 -88 61 -107 71 -19 10 -68 40 -109 66 -41 27 -76 49 -78 49 -2 0 -18
13 -36 30 -18 16 -36 30 -42 30 -5 0 -21 9 -35 21 -14 11 -38 29 -55 40 -21
15 -19 10 10 -16 22 -20 39 -41 38 -46 -2 -5 2 -8 8 -6 6 1 14 -4 17 -12 3 -9
0 -11 -9 -6 -11 6 -12 5 -1 -6 6 -7 12 -17 12 -22 0 -9 -21 7 -119 91 -28 24
-49 37 -46 30z"/>
<path d="M9277 4263 c5 -15 3 -16 -8 -5 -20 19 -29 15 -27 -13 1 -14 8 -25 15
-25 7 0 13 -5 13 -11 0 -5 5 -7 10 -4 6 3 10 1 10 -5 0 -6 5 -8 10 -5 6 3 10
1 10 -5 0 -6 4 -9 8 -6 5 3 19 -4 30 -15 22 -19 22 -19 22 0 0 14 5 18 20 14
11 -3 20 0 20 5 0 15 -41 52 -57 52 -7 0 -12 6 -10 13 1 7 -7 12 -20 11 -13
-1 -23 3 -23 7 0 5 -7 9 -15 9 -9 0 -12 -6 -8 -17z"/>
<path d="M7675 5320 c-3 -5 1 -10 9 -10 9 0 16 5 16 10 0 6 -4 10 -9 10 -6 0
-13 -4 -16 -10z"/>
<path d="M7699 5292 c-57 -31 -199 -109 -339 -187 -47 -26 -114 -62 -150 -79
-153 -74 -382 -201 -417 -231 l-37 -32 1 -614 c1 -338 -2 -600 -7 -584 -4 17
-8 289 -9 605 -1 563 -1 576 20 609 11 18 18 36 15 38 -8 8 -45 -58 -57 -102
-8 -27 -10 -209 -7 -580 5 -577 6 -584 56 -628 18 -17 24 -17 59 -5 21 7 40
15 43 18 5 5 69 36 130 64 14 6 28 15 32 20 3 5 25 9 48 8 34 -2 69 12 183 70
179 90 219 116 212 137 -5 17 2 21 195 122 52 28 100 55 107 61 17 14 19 1268
3 1299 -14 25 -18 24 -81 -9z m49 -628 c1 -291 0 -543 -3 -560 -4 -26 -15 -35
-68 -60 -80 -39 -340 -175 -437 -229 -87 -49 -297 -155 -376 -190 l-54 -24 0
565 0 564 23 9 c44 17 481 239 567 288 19 11 85 46 145 77 61 31 126 66 145
76 19 11 39 19 45 17 6 -2 11 -188 13 -533z"/>
<path d="M7090 4844 c-14 -8 -24 -19 -22 -25 1 -6 -2 -8 -7 -5 -4 3 -60 -20
-122 -52 l-114 -57 -2 -317 c-2 -174 1 -319 5 -322 14 -9 110 62 117 86 4 13
23 37 41 54 33 31 35 31 74 18 37 -13 44 -12 81 6 22 12 37 25 34 30 -4 6 -8
10 -11 10 -3 0 -3 -4 1 -9 3 -5 -7 -8 -22 -7 -16 2 -28 8 -28 14 0 7 -10 19
-22 27 -13 9 -20 22 -17 30 4 8 -1 18 -10 21 -9 3 -16 14 -16 25 0 18 -1 18
-45 -1 -54 -23 -58 -20 -10 9 26 15 35 27 35 46 0 29 -23 58 -35 47 -5 -4 -5
-1 -1 6 4 7 12 10 17 7 5 -4 9 1 9 10 0 11 -5 15 -14 12 -14 -6 -22 7 -30 50
-5 22 64 96 84 91 8 -2 17 12 23 35 7 30 6 41 -6 50 -18 15 -29 57 -13 51 6
-2 21 14 33 36 12 22 21 40 20 39 -1 -1 -13 -7 -27 -15z m-235 -334 c-3 -5
-12 -10 -18 -10 -7 0 -6 4 3 10 19 12 23 12 15 0z"/>
<path d="M7015 4558 c-4 -10 -11 -15 -16 -12 -5 3 -9 -2 -9 -10 0 -20 29 -21
36 -1 9 22 -2 44 -11 23z"/>
<path d="M7270 4345 c-8 -45 -8 -47 2 -37 5 5 8 18 5 28 -3 11 -6 15 -7 9z"/>
<path d="M7232 4258 c-25 -16 -30 -23 -21 -32 8 -8 13 -8 16 2 3 6 9 10 14 6
5 -3 9 2 9 10 0 8 8 20 18 25 9 6 13 10 7 11 -5 0 -25 -10 -43 -22z"/>
<path d="M7170 4222 c0 -5 -18 -17 -39 -27 -26 -11 -41 -25 -44 -41 -2 -13 0
-24 4 -24 5 0 9 -5 9 -11 0 -6 -6 -9 -13 -6 -8 3 -14 -3 -14 -15 -2 -17 0 -18
15 -7 9 8 6 1 -8 -14 -18 -21 -20 -26 -7 -21 10 3 17 1 17 -5 0 -6 7 -11 15
-11 8 0 15 4 15 10 0 5 7 7 15 4 24 -10 49 63 33 98 -5 9 -4 19 1 22 8 5 13
56 5 56 -2 0 -4 -4 -4 -8z m-10 -32 c0 -5 -5 -10 -11 -10 -5 0 -7 5 -4 10 3 6
8 10 11 10 2 0 4 -4 4 -10z"/>
<path d="M6883 4072 c-48 -24 -53 -29 -53 -59 l0 -33 33 20 c35 22 52 26 42
10 -9 -15 4 -12 21 5 14 13 13 15 -3 16 -11 0 -13 3 -5 6 7 3 19 18 27 34 20
37 8 37 -62 1z"/>
<path d="M7635 5299 c-4 -6 -17 -14 -29 -19 -14 -6 -16 -9 -5 -9 9 -1 24 8 34
19 10 11 15 20 12 20 -3 0 -9 -5 -12 -11z"/>
<path d="M7540 5233 c-8 -3 -27 -14 -42 -24 -14 -11 -36 -19 -47 -19 -12 0
-21 -6 -21 -12 0 -7 -32 -29 -71 -48 -39 -19 -73 -39 -76 -43 -6 -11 132 59
222 112 63 37 76 49 35 34z"/>
<path d="M6820 4850 c-19 -11 -31 -19 -27 -20 11 0 67 29 67 35 0 7 -1 7 -40
-15z"/>
<path d="M5968 3713 c7 -3 16 -2 19 1 4 3 -2 6 -13 5 -11 0 -14 -3 -6 -6z"/>
<path d="M8495 3680 c-3 -5 -16 -10 -28 -10 -18 -1 -19 -2 -6 -10 18 -11 89 5
89 20 0 13 -47 13 -55 0z"/>
<path d="M8927 3519 c7 -7 15 -10 18 -7 3 3 -2 9 -12 12 -14 6 -15 5 -6 -5z"/>
<path d="M8450 3506 c0 -2 13 -6 29 -8 17 -2 28 -1 25 4 -5 8 -54 12 -54 4z"/>
<path d="M8967 3499 c7 -7 15 -10 18 -7 3 3 -2 9 -12 12 -14 6 -15 5 -6 -5z"/>
<path d="M8528 3493 c7 -3 16 -2 19 1 4 3 -2 6 -13 5 -11 0 -14 -3 -6 -6z"/>
<path d="M8565 3490 c4 -6 12 -10 18 -9 30 4 39 -4 12 -11 -28 -7 -27 -8 14
-9 26 -1 52 -8 63 -18 11 -9 18 -11 18 -5 0 7 -6 12 -12 12 -10 0 -10 2 0 9
10 6 8 10 -10 15 -22 7 -22 7 -3 16 14 6 2 9 -43 9 -41 1 -61 -3 -57 -9z"/>
<path d="M9007 3479 c7 -7 15 -10 18 -7 3 3 -2 9 -12 12 -14 6 -15 5 -6 -5z"/>
<path d="M9042 3466 c3 -4 39 -27 80 -50 40 -24 126 -75 190 -115 65 -39 121
-71 125 -71 15 0 -211 143 -307 193 -52 28 -92 47 -88 43z"/>
<path d="M8700 3426 c0 -2 6 -9 13 -15 10 -8 14 -7 14 4 0 8 -6 15 -14 15 -7
0 -13 -2 -13 -4z"/>
<path d="M8855 3420 c3 -5 8 -10 11 -10 2 0 4 5 4 10 0 6 -5 10 -11 10 -5 0
-7 -4 -4 -10z"/>
<path d="M8827 3399 c7 -7 15 -10 18 -7 3 3 -2 9 -12 12 -14 6 -15 5 -6 -5z"/>
<path d="M8773 3383 c9 -2 23 -2 30 0 6 3 -1 5 -18 5 -16 0 -22 -2 -12 -5z"/>
<path d="M8951 3254 c-50 -26 -91 -51 -91 -56 0 -4 12 -13 26 -18 53 -21 75
-13 145 55 64 62 66 65 39 65 -16 0 -70 -21 -119 -46z"/>
<path d="M8030 3245 c-7 -8 -24 -15 -39 -15 -22 -1 -24 -2 -8 -11 9 -5 22 -7
27 -4 6 3 10 1 10 -4 0 -14 11 -14 47 0 22 8 24 12 13 19 -12 8 -12 10 3 10
10 0 15 5 12 10 -9 15 -51 12 -65 -5z"/>
<path d="M8238 3207 c-7 -7 -24 -18 -38 -25 -14 -7 -18 -11 -9 -8 9 2 22 -1
29 -7 10 -9 11 -9 6 1 -7 12 5 16 33 13 8 -2 10 2 5 10 -5 9 -2 10 9 6 9 -3
19 -2 22 2 3 5 -2 12 -11 15 -23 9 -31 8 -46 -7z"/>
<path d="M8313 3169 c-24 -12 -55 -35 -69 -52 -23 -28 -25 -37 -19 -81 3 -28
16 -61 28 -76 12 -15 27 -36 34 -46 10 -16 13 -17 22 -4 17 25 25 3 22 -62 -3
-67 4 -78 54 -78 36 0 95 34 95 55 0 8 16 37 36 64 19 28 38 66 41 85 7 47
-22 117 -61 144 -40 29 -53 15 -37 -39 7 -22 11 -43 8 -45 -2 -2 -10 15 -17
38 -7 24 -15 37 -18 29 -3 -10 -9 -8 -23 10 l-19 24 4 -35 c2 -19 7 -44 11
-55 3 -11 -1 -8 -9 7 -9 15 -17 42 -18 61 -2 19 -7 33 -13 30 -5 -2 -1 3 9 11
11 9 24 16 29 16 4 0 5 5 2 10 -10 16 -47 12 -92 -11z m57 -78 c0 -9 3 -27 7
-40 4 -17 3 -22 -5 -17 -7 4 -12 16 -12 26 0 10 -4 22 -10 25 -6 4 -7 -6 -4
-25 8 -35 -3 -40 -16 -7 -7 18 -9 18 -9 4 -2 -33 -21 -6 -21 29 0 31 8 39 33
35 4 0 7 5 7 12 1 17 30 -24 30 -42z m128 -17 c-4 -3 -12 5 -18 18 -12 22 -12
22 6 6 10 -10 15 -20 12 -24z m-58 -39 c0 -5 -5 -3 -10 5 -5 8 -10 20 -10 25
0 6 5 3 10 -5 5 -8 10 -19 10 -25z"/>
<path d="M8568 3069 c6 -7 12 -21 12 -30 0 -20 45 -40 83 -37 32 3 32 3 8 27
-24 24 -47 36 -86 45 -24 6 -28 5 -17 -5z"/>
<path d="M5890 3016 c0 -2 8 -10 18 -17 15 -13 16 -12 3 4 -13 16 -21 21 -21
13z"/>
<path d="M8783 2953 c-22 -8 -14 -23 13 -23 15 0 24 5 22 12 -5 14 -18 18 -35
11z"/>
<path d="M5450 2780 c8 -5 20 -10 25 -10 6 0 3 5 -5 10 -8 5 -19 10 -25 10 -5
0 -3 -5 5 -10z"/>
<path d="M8257 2693 c-4 -3 -7 -11 -7 -17 0 -6 5 -5 12 2 6 6 9 14 7 17 -3 3
-9 2 -12 -2z"/>
<path d="M8142 2581 c-53 -63 -56 -72 -87 -244 -15 -85 -42 -188 -67 -257 -54
-151 -61 -243 -25 -310 18 -33 32 -46 50 -48 15 -2 28 -11 31 -20 3 -9 5 -141
3 -292 -1 -151 2 -324 7 -383 8 -104 7 -108 -10 -99 -11 6 -75 17 -144 26
-178 23 -202 26 -230 30 -14 3 -56 10 -95 16 -38 6 -83 13 -100 16 -58 10
-443 7 -472 -4 -15 -6 -46 -14 -68 -18 -60 -11 -67 -12 -91 -18 -31 -8 -124
-67 -124 -78 0 -5 -4 -6 -10 -3 -5 3 -12 -6 -16 -20 -3 -14 -10 -25 -14 -25
-11 0 1 -51 18 -78 8 -12 10 -22 6 -22 -5 0 -1 -5 9 -11 9 -6 14 -15 11 -21
-4 -7 -2 -8 5 -4 6 4 14 0 17 -8 3 -9 12 -16 19 -16 7 0 15 -4 17 -10 4 -13
160 -70 223 -81 156 -28 286 -39 450 -39 134 -1 189 4 335 29 96 17 202 37
235 45 33 9 79 15 103 16 23 0 42 5 42 10 0 6 19 10 43 10 56 0 290 93 319
127 13 16 1 69 -20 90 -21 21 -20 -2 -27 423 -5 253 -3 384 5 455 7 55 14 143
17 196 l4 96 -28 -3 c-15 -2 -22 -1 -15 2 17 8 15 27 -3 20 -8 -3 -15 -1 -15
4 0 6 6 10 14 10 9 0 13 10 12 25 0 14 -4 25 -8 25 -4 0 -5 7 -2 15 4 8 1 15
-5 15 -6 0 -10 3 -10 8 1 4 0 10 -1 15 -1 4 -3 13 -4 20 -1 6 -7 11 -14 9 -16
-3 -15 18 3 103 8 39 15 92 15 118 0 45 -1 47 -20 37 -11 -6 -20 -7 -20 -1 0
5 -14 5 -37 -1 -21 -5 -54 -11 -73 -14 -19 -3 -41 -7 -48 -9 -7 -3 -16 3 -19
13 -3 9 -22 36 -41 60 l-35 44 22 29 c35 47 10 33 -37 -20z m-105 -776 c-4 -8
-11 -15 -17 -15 -7 0 -7 6 0 21 13 23 26 19 17 -6z m1 -63 c2 -7 -6 -12 -17
-12 -21 0 -27 11 -14 24 9 9 26 2 31 -12z m59 -53 c12 -12 7 -39 -7 -39 -4 0
-10 11 -12 25 -6 27 1 32 19 14z m192 -678 c1 -63 -1 -112 -4 -109 -12 12 -24
187 -17 258 l7 75 6 -55 c4 -30 7 -106 8 -169z m-286 -228 c-13 -2 -23 -9 -23
-14 0 -5 -7 -9 -15 -9 -8 0 -15 7 -15 15 0 11 10 15 38 14 23 -1 28 -3 15 -6z"/>
<path d="M8566 2533 c-4 -32 -14 -96 -22 -142 -18 -100 -16 -103 84 -152 62
-30 66 -30 79 -13 12 17 18 72 13 119 -3 31 -29 75 -42 72 -6 -1 -24 31 -39
71 -44 119 -63 130 -73 45z m54 -158 c11 -13 10 -14 -4 -9 -9 3 -16 10 -16 15
0 13 6 11 20 -6z"/>
<path d="M5566 2257 c3 -10 9 -15 12 -12 3 3 0 11 -7 18 -10 9 -11 8 -5 -6z"/>
<path d="M4520 2245 c0 -2 10 -10 23 -16 20 -11 21 -11 8 4 -13 16 -31 23 -31
12z"/>
<path d="M8491 2114 c0 -11 3 -14 6 -6 3 7 2 16 -1 19 -3 4 -6 -2 -5 -13z"/>
<path d="M4405 2040 c-3 -6 1 -7 9 -4 18 7 21 14 7 14 -6 0 -13 -4 -16 -10z"/>
<path d="M4217 1959 c7 -7 15 -10 18 -7 3 3 -2 9 -12 12 -14 6 -15 5 -6 -5z"/>
<path d="M4865 1880 c-3 -5 -2 -10 4 -10 5 0 13 5 16 10 3 6 2 10 -4 10 -5 0
-13 -4 -16 -10z"/>
<path d="M4495 1660 c3 -5 8 -10 11 -10 2 0 4 5 4 10 0 6 -5 10 -11 10 -5 0
-7 -4 -4 -10z"/>
<path d="M4925 1600 c3 -5 8 -10 11 -10 2 0 4 5 4 10 0 6 -5 10 -11 10 -5 0
-7 -4 -4 -10z"/>
<path d="M5507 1097 c-32 -18 -35 -22 -20 -28 11 -4 21 -1 26 7 4 8 14 14 21
14 7 0 13 7 13 15 0 8 -1 15 -1 14 -1 0 -18 -10 -39 -22z"/>
<path d="M5420 1049 c-29 -15 -31 -18 -13 -19 12 0 28 7 36 15 12 11 17 12 20
2 4 -9 6 -9 6 0 2 21 -13 22 -49 2z"/>
<path d="M5440 1016 c7 -7 13 -7 20 0 6 6 3 10 -10 10 -13 0 -16 -4 -10 -10z"/>
<path d="M5347 1013 c-4 -3 -7 -11 -7 -17 0 -7 3 -7 8 0 4 7 18 14 32 17 l25
4 -26 2 c-14 0 -29 -2 -32 -6z"/>
<path d="M5370 980 c-9 -6 -10 -10 -3 -10 6 0 15 5 18 10 8 12 4 12 -15 0z"/>
<path d="M5239 952 c-36 -21 -53 -52 -28 -52 5 0 8 4 4 9 -7 12 64 33 79 24 6
-4 5 1 -3 10 -12 15 -11 17 13 17 14 0 26 4 26 10 0 16 -50 7 -91 -18z"/>
<path d="M5253 795 c-9 -24 1 -27 15 -5 8 13 8 20 2 20 -6 0 -13 -7 -17 -15z"/>
<path d="M5240 629 c0 -5 5 -7 10 -4 6 3 10 8 10 11 0 2 -4 4 -10 4 -5 0 -10
-5 -10 -11z"/>
<path d="M5293 546 c-10 -11 -9 -15 2 -20 10 -4 15 1 15 14 0 23 -1 24 -17 6z"/>
<path d="M5317 494 c2 -7 12 -15 20 -18 12 -5 13 -4 5 7 -7 8 -10 16 -7 19 3
2 -1 5 -9 5 -8 0 -12 -6 -9 -13z"/>
<path d="M5272 165 l-23 -12 23 -6 c12 -4 24 -4 27 -2 2 3 -2 5 -9 5 -9 0 -7
5 6 15 23 17 8 18 -24 0z"/>
<path d="M5257 129 c7 -7 15 -10 18 -7 3 3 -2 9 -12 12 -14 6 -15 5 -6 -5z"/>
<path d="M5170 61 c0 -5 9 -7 20 -4 11 3 20 7 20 9 0 2 -9 4 -20 4 -11 0 -20
-4 -20 -9z"/>
<path d="M4833 33 c15 -2 39 -2 55 0 15 2 2 4 -28 4 -30 0 -43 -2 -27 -4z"/>
<path d="M4938 33 c7 -3 16 -2 19 1 4 3 -2 6 -13 5 -11 0 -14 -3 -6 -6z"/>
<path d="M5183 33 c9 -2 23 -2 30 0 6 3 -1 5 -18 5 -16 0 -22 -2 -12 -5z"/>
<path d="M5233 3 c15 -2 37 -2 50 0 12 2 0 4 -28 4 -27 0 -38 -2 -22 -4z"/>
</g>
</svg>
